<svg width="1192" height="1064" viewBox="0 0 1192 1064" fill="none" xmlns="http://www.w3.org/2000/svg">
<path d="M515.572 490.823L443.856 461.795C443.856 461.795 443.856 442.04 451.426 410.996C458.766 380.898 451.426 340.04 451.426 340.04C455.012 316.656 462.184 296.095 451.426 263.439C446.345 248.013 423.139 215.06 391.265 208.609C375.727 208.609 293.653 189.66 282.098 340.04C184.231 526.769 152.867 643.959 55 830.688C93.5868 897.287 116.815 931.401 155.401 998C178.908 946.798 391.265 954.459 376.922 884.711C491.904 913.681 675.736 972.198 704.023 946.798L732.71 843.589C835.9 862.134 876.14 874.799 974.151 843.589C1031.12 825.447 1017.18 793.597 1031.12 734.333C1036.85 710.016 1056.23 678.696 1017.18 649.668C978.135 620.64 959.808 611.771 941.481 601.692C928.878 594.762 868.57 619.834 862.195 601.692C850.215 588.939 900.842 569.036 847.454 546.862C837.095 508.561 862.195 535.17 876.14 499.692C847.454 473.083 882.913 461.795 847.454 410.996C865.814 362.031 857.78 345.463 876.14 296.498C906.42 263.439 851.438 182.806 991.681 174.743C1017.18 174.743 1017.18 131.605 991.681 78.7907C1012.69 39.7444 996.175 66.2322 1017.18 27.186C1045.87 -1.84173 890.483 -7.08277 862.195 18.3165C817.573 25.9766 775.739 109.028 798.05 118.301C808.807 152.569 845.86 149.344 862.195 174.743C878.531 200.143 893.272 263.439 862.195 285.613C825.541 291.257 814.116 347.534 783.309 387.21C752.63 399.304 704.023 394.063 704.023 340.04C713.187 311.012 676.977 288.606 643.065 311.012C575.334 355.763 541.469 407.368 515.572 490.823ZM515.572 490.823C535.891 528.72 547.843 550.894 547.843 569.036C522.482 610.916 503.88 646.089 478.519 687.969" stroke="#FA0EBF" stroke-width="4"/>
<path d="M483.3 691.004C507.417 649.911 527.313 614.967 551.429 573.874C570.155 584.759 577.327 572.664 578.522 565.407C579.717 558.15 573.342 540.814 551.429 552.103C542.266 535.17 529.915 503.937 517.962 483.375" stroke="#FA0EBF" stroke-width="4"/>
<ellipse cx="562.983" cy="563.391" rx="12.351" ry="11.6917" fill="white"/>
<ellipse cx="855.422" cy="569.842" rx="12.351" ry="11.6917" fill="white"/>
<rect y="931" width="91" height="133" fill="#D9D9D9"/>
<rect x="111" y="382" width="81" height="122" fill="#D9D9D9"/>
<rect x="467" y="363" width="57" height="73" fill="#D9D9D9"/>
<rect x="868" y="27" width="79" height="56" fill="#D9D9D9"/>
<rect x="874" y="129" width="59" height="47" fill="#D9D9D9"/>
<rect x="877" y="910" width="142" height="62" fill="#D9D9D9"/>
<g filter="url(#filter0_d_139_339)">
<path d="M506 398.958C504.619 398.958 503.294 398.409 502.317 397.433C501.34 396.456 500.792 395.131 500.792 393.75C500.792 392.369 501.34 391.044 502.317 390.067C503.294 389.09 504.619 388.542 506 388.542C507.381 388.542 508.706 389.09 509.683 390.067C510.659 391.044 511.208 392.369 511.208 393.75C511.208 394.434 511.073 395.111 510.812 395.743C510.55 396.375 510.166 396.949 509.683 397.433C509.199 397.916 508.625 398.3 507.993 398.562C507.361 398.823 506.684 398.958 506 398.958ZM506 379.167C502.132 379.167 498.423 380.703 495.688 383.438C492.953 386.173 491.417 389.882 491.417 393.75C491.417 404.687 506 420.833 506 420.833C506 420.833 520.583 404.687 520.583 393.75C520.583 389.882 519.047 386.173 516.312 383.438C513.577 380.703 509.868 379.167 506 379.167Z" fill="#FF0303"/>
</g>
<g filter="url(#filter1_d_139_339)">
<path d="M929 25.9582C927.619 25.9582 926.294 25.4094 925.317 24.4327C924.34 23.4559 923.792 22.1312 923.792 20.7498C923.792 19.3685 924.34 18.0437 925.317 17.067C926.294 16.0902 927.619 15.5415 929 15.5415C930.381 15.5415 931.706 16.0902 932.683 17.067C933.659 18.0437 934.208 19.3685 934.208 20.7498C934.208 21.4338 934.073 22.1111 933.812 22.743C933.55 23.3749 933.166 23.949 932.683 24.4327C932.199 24.9163 931.625 25.3 930.993 25.5617C930.361 25.8235 929.684 25.9582 929 25.9582ZM929 6.1665C925.132 6.1665 921.423 7.70296 918.688 10.4379C915.953 13.1728 914.417 16.8821 914.417 20.7498C914.417 31.6873 929 47.8332 929 47.8332C929 47.8332 943.583 31.6873 943.583 20.7498C943.583 16.8821 942.047 13.1728 939.312 10.4379C936.577 7.70296 932.868 6.1665 929 6.1665Z" fill="#FF0303"/>
</g>
<g filter="url(#filter2_d_139_339)">
<path d="M917 137.958C915.619 137.958 914.294 137.409 913.317 136.433C912.34 135.456 911.792 134.131 911.792 132.75C911.792 131.369 912.34 130.044 913.317 129.067C914.294 128.09 915.619 127.542 917 127.542C918.381 127.542 919.706 128.09 920.683 129.067C921.659 130.044 922.208 131.369 922.208 132.75C922.208 133.434 922.073 134.111 921.812 134.743C921.55 135.375 921.166 135.949 920.683 136.433C920.199 136.916 919.625 137.3 918.993 137.562C918.361 137.823 917.684 137.958 917 137.958ZM917 118.167C913.132 118.167 909.423 119.703 906.688 122.438C903.953 125.173 902.417 128.882 902.417 132.75C902.417 143.687 917 159.833 917 159.833C917 159.833 931.583 143.687 931.583 132.75C931.583 128.882 930.047 125.173 927.312 122.438C924.577 119.703 920.868 118.167 917 118.167Z" fill="#FF0303"/>
</g>
<path d="M994 739.958C992.619 739.958 991.294 739.409 990.317 738.433C989.34 737.456 988.792 736.131 988.792 734.75C988.792 733.369 989.34 732.044 990.317 731.067C991.294 730.09 992.619 729.542 994 729.542C995.381 729.542 996.706 730.09 997.683 731.067C998.659 732.044 999.208 733.369 999.208 734.75C999.208 735.434 999.073 736.111 998.812 736.743C998.55 737.375 998.166 737.949 997.683 738.433C997.199 738.916 996.625 739.3 995.993 739.562C995.361 739.823 994.684 739.958 994 739.958ZM994 720.167C990.132 720.167 986.423 721.703 983.688 724.438C980.953 727.173 979.417 730.882 979.417 734.75C979.417 745.687 994 761.833 994 761.833C994 761.833 1008.58 745.687 1008.58 734.75C1008.58 730.882 1007.05 727.173 1004.31 724.438C1001.58 721.703 997.868 720.167 994 720.167Z" fill="#FF0303"/>
<g filter="url(#filter3_d_139_339)">
<path d="M908 894.958C906.619 894.958 905.294 894.409 904.317 893.433C903.34 892.456 902.792 891.131 902.792 889.75C902.792 888.369 903.34 887.044 904.317 886.067C905.294 885.09 906.619 884.542 908 884.542C909.381 884.542 910.706 885.09 911.683 886.067C912.659 887.044 913.208 888.369 913.208 889.75C913.208 890.434 913.073 891.111 912.812 891.743C912.55 892.375 912.166 892.949 911.683 893.433C911.199 893.916 910.625 894.3 909.993 894.562C909.361 894.823 908.684 894.958 908 894.958ZM908 875.167C904.132 875.167 900.423 876.703 897.688 879.438C894.953 882.173 893.417 885.882 893.417 889.75C893.417 900.687 908 916.833 908 916.833C908 916.833 922.583 900.687 922.583 889.75C922.583 885.882 921.047 882.173 918.312 879.438C915.577 876.703 911.868 875.167 908 875.167Z" fill="#FF0303"/>
</g>
<path d="M64.9998 990.958C63.6185 990.958 62.2937 990.409 61.317 989.433C60.3402 988.456 59.7915 987.131 59.7915 985.75C59.7915 984.369 60.3402 983.044 61.317 982.067C62.2937 981.09 63.6185 980.542 64.9998 980.542C66.3812 980.542 67.7059 981.09 68.6827 982.067C69.6594 983.044 70.2082 984.369 70.2082 985.75C70.2082 986.434 70.0735 987.111 69.8117 987.743C69.55 988.375 69.1663 988.949 68.6827 989.433C68.199 989.916 67.6249 990.3 66.993 990.562C66.3611 990.823 65.6838 990.958 64.9998 990.958ZM64.9998 971.167C61.1321 971.167 57.4228 972.703 54.6879 975.438C51.953 978.173 50.4165 981.882 50.4165 985.75C50.4165 996.687 64.9998 1012.83 64.9998 1012.83C64.9998 1012.83 79.5832 996.687 79.5832 985.75C79.5832 981.882 78.0467 978.173 75.3118 975.438C72.5769 972.703 68.8676 971.167 64.9998 971.167Z" fill="#FF0303"/>
<g filter="url(#filter4_d_139_339)">
<path d="M170 416.958C168.619 416.958 167.294 416.409 166.317 415.433C165.34 414.456 164.792 413.131 164.792 411.75C164.792 410.369 165.34 409.044 166.317 408.067C167.294 407.09 168.619 406.542 170 406.542C171.381 406.542 172.706 407.09 173.683 408.067C174.659 409.044 175.208 410.369 175.208 411.75C175.208 412.434 175.073 413.111 174.812 413.743C174.55 414.375 174.166 414.949 173.683 415.433C173.199 415.916 172.625 416.3 171.993 416.562C171.361 416.823 170.684 416.958 170 416.958ZM170 397.167C166.132 397.167 162.423 398.703 159.688 401.438C156.953 404.173 155.417 407.882 155.417 411.75C155.417 422.687 170 438.833 170 438.833C170 438.833 184.583 422.687 184.583 411.75C184.583 407.882 183.047 404.173 180.312 401.438C177.577 398.703 173.868 397.167 170 397.167Z" fill="#FF0303"/>
</g>
<path d="M488.464 711.174L444.05 693.45C442.707 692.914 442.036 692.646 441.577 693.031C441.118 693.415 441.127 694.237 441.147 695.886L441.595 733.883L488.523 716.105C491.131 715.117 492.436 714.622 492.425 713.686C492.414 712.75 491.097 712.225 488.464 711.174Z" fill="#05FF16"/>
<path d="M441.595 733.883L441.147 695.886C441.127 694.237 441.118 693.415 441.577 693.031C442.036 692.646 442.707 692.914 444.05 693.45L488.464 711.174C491.097 712.225 492.414 712.75 492.425 713.686C492.436 714.622 491.131 715.117 488.523 716.105L441.595 733.883ZM441.595 733.883L441.963 765.088" stroke="#05FF16" stroke-width="2" stroke-linecap="round"/>
<rect width="264.046" height="5.12199" transform="matrix(0.999848 0.0174524 0.0174524 -0.999848 581.915 568.068)" fill="white"/>
<path d="M119.511 696.525L121.13 728.173L95.6206 717.345L119.511 696.525Z" fill="#FFFF01"/>
<path d="M576.83 936.445L608.136 931.527L600.034 958.029L576.83 936.445Z" fill="#FFFF01"/>
<path d="M1009.12 643.714L978.67 634.941L997.213 614.346L1009.12 643.714Z" fill="#FFFF01"/>
<path d="M850.726 400.513L843.636 369.627L870.638 375.861L850.726 400.513Z" fill="#FFFF01"/>
<path d="M812.069 54.8869L808.717 86.3991L785.215 71.7135L812.069 54.8869Z" fill="#FFFF01"/>
<path d="M901.065 205.348L917.42 178.205L932.513 201.447L901.065 205.348Z" fill="#FFFF01"/>
<path d="M537.349 519.935L510.206 503.58L533.448 488.486L537.349 519.935Z" fill="#FFFF01"/>
<path d="M503.787 654.555L511.492 623.816L532.721 641.629L503.787 654.555Z" fill="#FFFF01"/>
<path d="M534.274 590.262L530.922 621.774L507.42 607.089L534.274 590.262Z" fill="#FFFF01"/>
<path d="M532.078 522.224L557.693 540.883L533.224 553.893L532.078 522.224Z" fill="#FFFF01"/>
<path d="M604.668 339.801L593.793 369.567L574.542 349.632L604.668 339.801Z" fill="#FFFF01"/>
<path d="M453.661 324.273L439.309 296.02L467.018 295.536L453.661 324.273Z" fill="#FFFF01"/>
<path d="M295.551 267.327L303.179 298.085L276.072 292.323L295.551 267.327Z" fill="#FFFF01"/>
<mask id="path-34-outside-1_139_339" maskUnits="userSpaceOnUse" x="353" y="778" width="180" height="24" fill="black">
<rect fill="white" x="353" y="778" width="180" height="24"/>
<path d="M364.986 785.565C364.918 784.878 364.625 784.344 364.108 783.963C363.591 783.582 362.889 783.392 362.003 783.392C361.401 783.392 360.892 783.477 360.477 783.648C360.063 783.812 359.744 784.043 359.523 784.338C359.307 784.634 359.199 784.969 359.199 785.344C359.188 785.656 359.253 785.929 359.395 786.162C359.543 786.395 359.744 786.597 360 786.767C360.256 786.932 360.551 787.077 360.886 787.202C361.222 787.321 361.58 787.423 361.96 787.509L363.528 787.884C364.29 788.054 364.989 788.281 365.625 788.565C366.261 788.849 366.813 789.199 367.278 789.614C367.744 790.028 368.105 790.517 368.361 791.08C368.622 791.642 368.756 792.287 368.761 793.014C368.756 794.082 368.483 795.009 367.943 795.793C367.409 796.571 366.636 797.176 365.625 797.608C364.619 798.034 363.406 798.247 361.986 798.247C360.577 798.247 359.349 798.031 358.304 797.599C357.264 797.168 356.452 796.528 355.866 795.682C355.287 794.83 354.983 793.776 354.955 792.52H358.526C358.565 793.105 358.733 793.594 359.028 793.986C359.33 794.372 359.73 794.665 360.23 794.864C360.736 795.057 361.307 795.153 361.943 795.153C362.568 795.153 363.111 795.062 363.571 794.881C364.037 794.699 364.398 794.446 364.653 794.122C364.909 793.798 365.037 793.426 365.037 793.006C365.037 792.614 364.92 792.284 364.688 792.017C364.46 791.75 364.125 791.523 363.682 791.335C363.244 791.148 362.707 790.977 362.071 790.824L360.17 790.347C358.699 789.989 357.537 789.429 356.685 788.668C355.832 787.906 355.409 786.881 355.415 785.591C355.409 784.534 355.69 783.611 356.259 782.821C356.832 782.031 357.619 781.415 358.619 780.972C359.619 780.528 360.756 780.307 362.028 780.307C363.324 780.307 364.455 780.528 365.42 780.972C366.392 781.415 367.148 782.031 367.688 782.821C368.227 783.611 368.506 784.526 368.523 785.565H364.986ZM370.579 783.588V780.545H384.914V783.588H379.57V798H375.923V783.588H370.579ZM388.151 798H384.196L390.222 780.545H394.977L400.994 798H397.04L392.668 784.534H392.531L388.151 798ZM387.903 791.139H397.244V794.02H387.903V791.139ZM403.095 798V780.545H409.982C411.3 780.545 412.425 780.781 413.357 781.253C414.294 781.719 415.007 782.381 415.496 783.239C415.99 784.091 416.237 785.094 416.237 786.247C416.237 787.406 415.987 788.403 415.487 789.239C414.987 790.068 414.263 790.705 413.314 791.148C412.371 791.591 411.229 791.812 409.888 791.812H405.277V788.847H409.291C409.996 788.847 410.581 788.75 411.047 788.557C411.513 788.364 411.859 788.074 412.087 787.688C412.32 787.301 412.436 786.821 412.436 786.247C412.436 785.668 412.32 785.179 412.087 784.781C411.859 784.384 411.51 784.082 411.038 783.878C410.572 783.668 409.984 783.562 409.274 783.562H406.786V798H403.095ZM412.521 790.057L416.859 798H412.786L408.541 790.057H412.521ZM418.18 783.588V780.545H432.516V783.588H427.172V798H423.524V783.588H418.18ZM447.965 779.727L442.34 800.625H439.212L444.837 779.727H447.965ZM455.337 798V780.545H466.894V783.588H459.028V787.747H466.127V790.79H459.028V798H455.337ZM473.067 780.545V798H469.376V780.545H473.067ZM490.702 780.545V798H487.515L479.921 787.014H479.793V798H476.103V780.545H479.342L486.876 791.523H487.029V780.545H490.702ZM497.442 780.545V798H493.751V780.545H497.442ZM509.947 785.565C509.879 784.878 509.586 784.344 509.069 783.963C508.552 783.582 507.85 783.392 506.964 783.392C506.362 783.392 505.853 783.477 505.438 783.648C505.023 783.812 504.705 784.043 504.484 784.338C504.268 784.634 504.16 784.969 504.16 785.344C504.148 785.656 504.214 785.929 504.356 786.162C504.504 786.395 504.705 786.597 504.961 786.767C505.217 786.932 505.512 787.077 505.847 787.202C506.183 787.321 506.54 787.423 506.921 787.509L508.489 787.884C509.251 788.054 509.95 788.281 510.586 788.565C511.222 788.849 511.773 789.199 512.239 789.614C512.705 790.028 513.066 790.517 513.322 791.08C513.583 791.642 513.717 792.287 513.722 793.014C513.717 794.082 513.444 795.009 512.904 795.793C512.37 796.571 511.597 797.176 510.586 797.608C509.58 798.034 508.367 798.247 506.947 798.247C505.538 798.247 504.31 798.031 503.265 797.599C502.225 797.168 501.413 796.528 500.827 795.682C500.248 794.83 499.944 793.776 499.915 792.52H503.487C503.526 793.105 503.694 793.594 503.989 793.986C504.29 794.372 504.691 794.665 505.191 794.864C505.697 795.057 506.268 795.153 506.904 795.153C507.529 795.153 508.072 795.062 508.532 794.881C508.998 794.699 509.359 794.446 509.614 794.122C509.87 793.798 509.998 793.426 509.998 793.006C509.998 792.614 509.881 792.284 509.648 792.017C509.421 791.75 509.086 791.523 508.643 791.335C508.205 791.148 507.668 790.977 507.032 790.824L505.131 790.347C503.66 789.989 502.498 789.429 501.646 788.668C500.793 787.906 500.37 786.881 500.376 785.591C500.37 784.534 500.651 783.611 501.219 782.821C501.793 782.031 502.58 781.415 503.58 780.972C504.58 780.528 505.717 780.307 506.989 780.307C508.285 780.307 509.415 780.528 510.381 780.972C511.353 781.415 512.109 782.031 512.648 782.821C513.188 783.611 513.467 784.526 513.484 785.565H509.947ZM516.205 798V780.545H519.895V787.747H527.386V780.545H531.068V798H527.386V790.79H519.895V798H516.205Z"/>
</mask>
<path d="M364.986 785.565C364.918 784.878 364.625 784.344 364.108 783.963C363.591 783.582 362.889 783.392 362.003 783.392C361.401 783.392 360.892 783.477 360.477 783.648C360.063 783.812 359.744 784.043 359.523 784.338C359.307 784.634 359.199 784.969 359.199 785.344C359.188 785.656 359.253 785.929 359.395 786.162C359.543 786.395 359.744 786.597 360 786.767C360.256 786.932 360.551 787.077 360.886 787.202C361.222 787.321 361.58 787.423 361.96 787.509L363.528 787.884C364.29 788.054 364.989 788.281 365.625 788.565C366.261 788.849 366.813 789.199 367.278 789.614C367.744 790.028 368.105 790.517 368.361 791.08C368.622 791.642 368.756 792.287 368.761 793.014C368.756 794.082 368.483 795.009 367.943 795.793C367.409 796.571 366.636 797.176 365.625 797.608C364.619 798.034 363.406 798.247 361.986 798.247C360.577 798.247 359.349 798.031 358.304 797.599C357.264 797.168 356.452 796.528 355.866 795.682C355.287 794.83 354.983 793.776 354.955 792.52H358.526C358.565 793.105 358.733 793.594 359.028 793.986C359.33 794.372 359.73 794.665 360.23 794.864C360.736 795.057 361.307 795.153 361.943 795.153C362.568 795.153 363.111 795.062 363.571 794.881C364.037 794.699 364.398 794.446 364.653 794.122C364.909 793.798 365.037 793.426 365.037 793.006C365.037 792.614 364.92 792.284 364.688 792.017C364.46 791.75 364.125 791.523 363.682 791.335C363.244 791.148 362.707 790.977 362.071 790.824L360.17 790.347C358.699 789.989 357.537 789.429 356.685 788.668C355.832 787.906 355.409 786.881 355.415 785.591C355.409 784.534 355.69 783.611 356.259 782.821C356.832 782.031 357.619 781.415 358.619 780.972C359.619 780.528 360.756 780.307 362.028 780.307C363.324 780.307 364.455 780.528 365.42 780.972C366.392 781.415 367.148 782.031 367.688 782.821C368.227 783.611 368.506 784.526 368.523 785.565H364.986ZM370.579 783.588V780.545H384.914V783.588H379.57V798H375.923V783.588H370.579ZM388.151 798H384.196L390.222 780.545H394.977L400.994 798H397.04L392.668 784.534H392.531L388.151 798ZM387.903 791.139H397.244V794.02H387.903V791.139ZM403.095 798V780.545H409.982C411.3 780.545 412.425 780.781 413.357 781.253C414.294 781.719 415.007 782.381 415.496 783.239C415.99 784.091 416.237 785.094 416.237 786.247C416.237 787.406 415.987 788.403 415.487 789.239C414.987 790.068 414.263 790.705 413.314 791.148C412.371 791.591 411.229 791.812 409.888 791.812H405.277V788.847H409.291C409.996 788.847 410.581 788.75 411.047 788.557C411.513 788.364 411.859 788.074 412.087 787.688C412.32 787.301 412.436 786.821 412.436 786.247C412.436 785.668 412.32 785.179 412.087 784.781C411.859 784.384 411.51 784.082 411.038 783.878C410.572 783.668 409.984 783.562 409.274 783.562H406.786V798H403.095ZM412.521 790.057L416.859 798H412.786L408.541 790.057H412.521ZM418.18 783.588V780.545H432.516V783.588H427.172V798H423.524V783.588H418.18ZM447.965 779.727L442.34 800.625H439.212L444.837 779.727H447.965ZM455.337 798V780.545H466.894V783.588H459.028V787.747H466.127V790.79H459.028V798H455.337ZM473.067 780.545V798H469.376V780.545H473.067ZM490.702 780.545V798H487.515L479.921 787.014H479.793V798H476.103V780.545H479.342L486.876 791.523H487.029V780.545H490.702ZM497.442 780.545V798H493.751V780.545H497.442ZM509.947 785.565C509.879 784.878 509.586 784.344 509.069 783.963C508.552 783.582 507.85 783.392 506.964 783.392C506.362 783.392 505.853 783.477 505.438 783.648C505.023 783.812 504.705 784.043 504.484 784.338C504.268 784.634 504.16 784.969 504.16 785.344C504.148 785.656 504.214 785.929 504.356 786.162C504.504 786.395 504.705 786.597 504.961 786.767C505.217 786.932 505.512 787.077 505.847 787.202C506.183 787.321 506.54 787.423 506.921 787.509L508.489 787.884C509.251 788.054 509.95 788.281 510.586 788.565C511.222 788.849 511.773 789.199 512.239 789.614C512.705 790.028 513.066 790.517 513.322 791.08C513.583 791.642 513.717 792.287 513.722 793.014C513.717 794.082 513.444 795.009 512.904 795.793C512.37 796.571 511.597 797.176 510.586 797.608C509.58 798.034 508.367 798.247 506.947 798.247C505.538 798.247 504.31 798.031 503.265 797.599C502.225 797.168 501.413 796.528 500.827 795.682C500.248 794.83 499.944 793.776 499.915 792.52H503.487C503.526 793.105 503.694 793.594 503.989 793.986C504.29 794.372 504.691 794.665 505.191 794.864C505.697 795.057 506.268 795.153 506.904 795.153C507.529 795.153 508.072 795.062 508.532 794.881C508.998 794.699 509.359 794.446 509.614 794.122C509.87 793.798 509.998 793.426 509.998 793.006C509.998 792.614 509.881 792.284 509.648 792.017C509.421 791.75 509.086 791.523 508.643 791.335C508.205 791.148 507.668 790.977 507.032 790.824L505.131 790.347C503.66 789.989 502.498 789.429 501.646 788.668C500.793 787.906 500.37 786.881 500.376 785.591C500.37 784.534 500.651 783.611 501.219 782.821C501.793 782.031 502.58 781.415 503.58 780.972C504.58 780.528 505.717 780.307 506.989 780.307C508.285 780.307 509.415 780.528 510.381 780.972C511.353 781.415 512.109 782.031 512.648 782.821C513.188 783.611 513.467 784.526 513.484 785.565H509.947ZM516.205 798V780.545H519.895V787.747H527.386V780.545H531.068V798H527.386V790.79H519.895V798H516.205Z" fill="#05FF16"/>
<path d="M364.986 785.565L363.991 785.664L364.08 786.565H364.986V785.565ZM360.477 783.648L360.846 784.577L360.857 784.573L360.477 783.648ZM359.523 784.338L358.723 783.738L358.715 783.748L359.523 784.338ZM359.199 785.344L360.198 785.38L360.199 785.362V785.344H359.199ZM359.395 786.162L358.541 786.683L358.546 786.69L358.55 786.697L359.395 786.162ZM360 786.767L359.445 787.599L359.452 787.603L359.458 787.608L360 786.767ZM360.886 787.202L360.537 788.139L360.544 788.141L360.551 788.144L360.886 787.202ZM361.96 787.509L362.193 786.536L362.186 786.534L362.179 786.533L361.96 787.509ZM363.528 787.884L363.296 788.856L363.303 788.858L363.31 788.859L363.528 787.884ZM365.625 788.565L365.217 789.478L365.625 788.565ZM367.278 789.614L367.943 788.867V788.867L367.278 789.614ZM368.361 791.08L367.45 791.493L367.454 791.501L368.361 791.08ZM368.761 793.014L369.761 793.02L369.761 793.006L368.761 793.014ZM367.943 795.793L367.119 795.226L367.119 795.227L367.943 795.793ZM365.625 797.608L366.015 798.529L366.018 798.528L365.625 797.608ZM358.304 797.599L357.92 798.523L357.922 798.524L358.304 797.599ZM355.866 795.682L355.04 796.244L355.044 796.25L355.866 795.682ZM354.955 792.52V791.52H353.932L353.955 792.543L354.955 792.52ZM358.526 792.52L359.523 792.452L359.46 791.52H358.526V792.52ZM359.028 793.986L358.23 794.588L358.235 794.594L358.24 794.601L359.028 793.986ZM360.23 794.864L359.861 795.793L359.873 795.798L360.23 794.864ZM363.571 794.881L363.207 793.949L363.204 793.951L363.571 794.881ZM364.653 794.122L365.438 794.742H365.438L364.653 794.122ZM364.688 792.017L363.926 792.665L363.934 792.674L364.688 792.017ZM363.682 791.335L363.288 792.254L363.292 792.256L363.682 791.335ZM362.071 790.824L361.827 791.794L361.837 791.796L362.071 790.824ZM360.17 790.347L360.414 789.377L360.407 789.375L360.17 790.347ZM356.685 788.668L356.018 789.413H356.018L356.685 788.668ZM355.415 785.591L356.415 785.595L356.415 785.586L355.415 785.591ZM356.259 782.821L355.45 782.233L355.447 782.237L356.259 782.821ZM365.42 780.972L365.003 781.88L365.005 781.881L365.42 780.972ZM367.688 782.821L366.862 783.385L366.862 783.385L367.688 782.821ZM368.523 785.565V786.565H369.539L369.523 785.549L368.523 785.565ZM365.981 785.467C365.887 784.521 365.465 783.72 364.701 783.158L363.515 784.768C363.785 784.967 363.948 785.234 363.991 785.664L365.981 785.467ZM364.701 783.158C363.957 782.61 363.023 782.392 362.003 782.392V784.392C362.755 784.392 363.224 784.554 363.515 784.768L364.701 783.158ZM362.003 782.392C361.312 782.392 360.666 782.489 360.097 782.723L360.857 784.573C361.118 784.466 361.489 784.392 362.003 784.392V782.392ZM360.108 782.718C359.558 782.937 359.076 783.267 358.723 783.738L360.323 784.938C360.413 784.818 360.567 784.688 360.846 784.577L360.108 782.718ZM358.715 783.748C358.371 784.219 358.199 784.762 358.199 785.344H360.199C360.199 785.175 360.243 785.048 360.33 784.928L358.715 783.748ZM358.2 785.307C358.182 785.786 358.283 786.259 358.541 786.683L360.249 785.641C360.223 785.599 360.193 785.526 360.198 785.38L358.2 785.307ZM358.55 786.697C358.781 787.061 359.087 787.36 359.445 787.599L360.555 785.935C360.402 785.833 360.304 785.729 360.239 785.626L358.55 786.697ZM359.458 787.608C359.784 787.817 360.146 787.993 360.537 788.139L361.236 786.265C360.956 786.161 360.727 786.046 360.542 785.926L359.458 787.608ZM360.551 788.144C360.928 788.278 361.325 788.391 361.742 788.484L362.179 786.533C361.834 786.455 361.515 786.364 361.222 786.26L360.551 788.144ZM361.728 788.481L363.296 788.856L363.761 786.911L362.193 786.536L361.728 788.481ZM363.31 788.859C364.014 789.017 364.649 789.225 365.217 789.478L366.033 787.652C365.329 787.338 364.566 787.091 363.747 786.908L363.31 788.859ZM365.217 789.478C365.771 789.726 366.233 790.022 366.613 790.361L367.943 788.867C367.392 788.376 366.752 787.973 366.033 787.652L365.217 789.478ZM366.613 790.361C366.976 790.684 367.253 791.059 367.45 791.493L369.271 790.666C368.957 789.975 368.512 789.373 367.943 788.867L366.613 790.361ZM367.454 791.501C367.646 791.913 367.757 792.413 367.761 793.022L369.761 793.006C369.755 792.161 369.599 791.371 369.268 790.658L367.454 791.501ZM367.761 793.009C367.757 793.902 367.532 794.627 367.119 795.226L368.767 796.36C369.434 795.39 369.755 794.263 369.761 793.02L367.761 793.009ZM367.119 795.227C366.709 795.824 366.098 796.318 365.232 796.688L366.018 798.528C367.174 798.034 368.109 797.318 368.768 796.358L367.119 795.227ZM365.235 796.687C364.384 797.048 363.311 797.247 361.986 797.247V799.247C363.502 799.247 364.855 799.02 366.015 798.529L365.235 796.687ZM361.986 797.247C360.677 797.247 359.584 797.046 358.686 796.675L357.922 798.524C359.115 799.016 360.477 799.247 361.986 799.247V797.247ZM358.688 796.676C357.808 796.311 357.155 795.787 356.689 795.113L355.044 796.25C355.749 797.27 356.721 798.025 357.92 798.523L358.688 796.676ZM356.693 795.12C356.244 794.459 355.979 793.603 355.954 792.497L353.955 792.543C353.987 793.949 354.33 795.201 355.04 796.244L356.693 795.12ZM354.955 793.52H358.526V791.52H354.955V793.52ZM357.528 792.588C357.578 793.328 357.796 794.013 358.23 794.588L359.827 793.384C359.669 793.175 359.552 792.882 359.523 792.452L357.528 792.588ZM358.24 794.601C358.661 795.141 359.212 795.535 359.861 795.793L360.6 793.934C360.248 793.795 359.998 793.604 359.817 793.371L358.24 794.601ZM359.873 795.798C360.511 796.041 361.206 796.153 361.943 796.153V794.153C361.408 794.153 360.961 794.072 360.587 793.929L359.873 795.798ZM361.943 796.153C362.662 796.153 363.335 796.049 363.938 795.811L363.204 793.951C362.887 794.076 362.474 794.153 361.943 794.153V796.153ZM363.935 795.812C364.531 795.579 365.051 795.232 365.438 794.742L363.869 793.503C363.744 793.66 363.543 793.818 363.207 793.949L363.935 795.812ZM365.438 794.742C365.836 794.238 366.037 793.646 366.037 793.006H364.037C364.037 793.206 363.982 793.359 363.869 793.503L365.438 794.742ZM366.037 793.006C366.037 792.4 365.85 791.829 365.441 791.36L363.934 792.674C363.991 792.74 364.037 792.828 364.037 793.006H366.037ZM365.449 791.369C365.09 790.947 364.608 790.641 364.071 790.414L363.292 792.256C363.642 792.404 363.83 792.553 363.926 792.665L365.449 791.369ZM364.076 790.416C363.572 790.2 362.978 790.014 362.305 789.852L361.837 791.796C362.437 791.941 362.917 792.095 363.288 792.254L364.076 790.416ZM362.315 789.854L360.414 789.377L359.927 791.316L361.827 791.794L362.315 789.854ZM360.407 789.375C359.045 789.044 358.047 788.544 357.351 787.922L356.018 789.413C357.027 790.314 358.353 790.934 359.934 791.318L360.407 789.375ZM357.351 787.922C356.741 787.377 356.41 786.64 356.415 785.595L354.415 785.587C354.408 787.122 354.924 788.436 356.018 789.413L357.351 787.922ZM356.415 785.586C356.41 784.721 356.636 784.008 357.07 783.405L355.447 782.237C354.744 783.213 354.408 784.347 354.415 785.596L356.415 785.586ZM357.068 783.409C357.526 782.778 358.166 782.266 359.024 781.886L358.214 780.057C357.073 780.563 356.139 781.284 355.45 782.233L357.068 783.409ZM359.024 781.886C359.878 781.508 360.873 781.307 362.028 781.307V779.307C360.639 779.307 359.361 779.549 358.214 780.057L359.024 781.886ZM362.028 781.307C363.211 781.307 364.194 781.509 365.003 781.88L365.837 780.063C364.715 779.548 363.437 779.307 362.028 779.307V781.307ZM365.005 781.881C365.831 782.258 366.437 782.763 366.862 783.385L368.513 782.257C367.859 781.3 366.953 780.572 365.835 780.062L365.005 781.881ZM366.862 783.385C367.282 783.999 367.509 784.72 367.523 785.582L369.523 785.549C369.503 784.331 369.173 783.222 368.513 782.257L366.862 783.385ZM368.523 784.565H364.986V786.565H368.523V784.565ZM370.579 783.588H369.579V784.588H370.579V783.588ZM370.579 780.545V779.545H369.579V780.545H370.579ZM384.914 780.545H385.914V779.545H384.914V780.545ZM384.914 783.588V784.588H385.914V783.588H384.914ZM379.57 783.588V782.588H378.57V783.588H379.57ZM379.57 798V799H380.57V798H379.57ZM375.923 798H374.923V799H375.923V798ZM375.923 783.588H376.923V782.588H375.923V783.588ZM371.579 783.588V780.545H369.579V783.588H371.579ZM370.579 781.545H384.914V779.545H370.579V781.545ZM383.914 780.545V783.588H385.914V780.545H383.914ZM384.914 782.588H379.57V784.588H384.914V782.588ZM378.57 783.588V798H380.57V783.588H378.57ZM379.57 797H375.923V799H379.57V797ZM376.923 798V783.588H374.923V798H376.923ZM375.923 782.588H370.579V784.588H375.923V782.588ZM388.151 798V799H388.877L389.102 798.309L388.151 798ZM384.196 798L383.251 797.674L382.793 799H384.196V798ZM390.222 780.545V779.545H389.509L389.276 780.219L390.222 780.545ZM394.977 780.545L395.923 780.22L395.69 779.545H394.977V780.545ZM400.994 798V799H402.397L401.94 797.674L400.994 798ZM397.04 798L396.089 798.309L396.313 799H397.04V798ZM392.668 784.534L393.619 784.225L393.394 783.534H392.668V784.534ZM392.531 784.534V783.534H391.805L391.58 784.225L392.531 784.534ZM387.903 791.139V790.139H386.903V791.139H387.903ZM397.244 791.139H398.244V790.139H397.244V791.139ZM397.244 794.02V795.02H398.244V794.02H397.244ZM387.903 794.02H386.903V795.02H387.903V794.02ZM388.151 797H384.196V799H388.151V797ZM385.141 798.326L391.167 780.872L389.276 780.219L383.251 797.674L385.141 798.326ZM390.222 781.545H394.977V779.545H390.222V781.545ZM394.032 780.871L400.049 798.326L401.94 797.674L395.923 780.22L394.032 780.871ZM400.994 797H397.04V799H400.994V797ZM397.991 797.691L393.619 784.225L391.716 784.843L396.089 798.309L397.991 797.691ZM392.668 783.534H392.531V785.534H392.668V783.534ZM391.58 784.225L387.2 797.691L389.102 798.309L393.482 784.843L391.58 784.225ZM387.903 792.139H397.244V790.139H387.903V792.139ZM396.244 791.139V794.02H398.244V791.139H396.244ZM397.244 793.02H387.903V795.02H397.244V793.02ZM388.903 794.02V791.139H386.903V794.02H388.903ZM403.095 798H402.095V799H403.095V798ZM403.095 780.545V779.545H402.095V780.545H403.095ZM413.357 781.253L412.905 782.145L412.911 782.148L413.357 781.253ZM415.496 783.239L414.627 783.734L414.631 783.74L415.496 783.239ZM415.487 789.239L416.344 789.755L416.345 789.752L415.487 789.239ZM413.314 791.148L412.891 790.242L412.889 790.243L413.314 791.148ZM405.277 791.812H404.277V792.812H405.277V791.812ZM405.277 788.847V787.847H404.277V788.847H405.277ZM411.047 788.557L411.43 789.481L411.047 788.557ZM412.087 787.688L411.23 787.171L411.225 787.18L412.087 787.688ZM412.087 784.781L411.218 785.277L411.224 785.287L412.087 784.781ZM411.038 783.878L410.627 784.789L410.634 784.792L410.64 784.795L411.038 783.878ZM406.786 783.562V782.562H405.786V783.562H406.786ZM406.786 798V799H407.786V798H406.786ZM412.521 790.057L413.399 789.578L413.115 789.057H412.521V790.057ZM416.859 798V799H418.545L417.737 797.521L416.859 798ZM412.786 798L411.904 798.471L412.186 799H412.786V798ZM408.541 790.057V789.057H406.873L407.659 790.528L408.541 790.057ZM404.095 798V780.545H402.095V798H404.095ZM403.095 781.545H409.982V779.545H403.095V781.545ZM409.982 781.545C411.183 781.545 412.145 781.76 412.905 782.145L413.808 780.361C412.704 779.802 411.417 779.545 409.982 779.545V781.545ZM412.911 782.148C413.682 782.531 414.243 783.059 414.627 783.734L416.365 782.744C415.772 781.702 414.906 780.906 413.802 780.357L412.911 782.148ZM414.631 783.74C415.023 784.416 415.237 785.24 415.237 786.247H417.237C417.237 784.948 416.958 783.766 416.361 782.737L414.631 783.74ZM415.237 786.247C415.237 787.26 415.02 788.072 414.629 788.725L416.345 789.752C416.954 788.735 417.237 787.552 417.237 786.247H415.237ZM414.631 788.722C414.242 789.368 413.675 789.875 412.891 790.242L413.737 792.054C414.851 791.534 415.733 790.768 416.344 789.755L414.631 788.722ZM412.889 790.243C412.111 790.608 411.122 790.812 409.888 790.812V792.812C411.335 792.812 412.631 792.574 413.739 792.053L412.889 790.243ZM409.888 790.812H405.277V792.812H409.888V790.812ZM406.277 791.812V788.847H404.277V791.812H406.277ZM405.277 789.847H409.291V787.847H405.277V789.847ZM409.291 789.847C410.079 789.847 410.805 789.74 411.43 789.481L410.664 787.633C410.357 787.76 409.913 787.847 409.291 787.847V789.847ZM411.43 789.481C412.07 789.215 412.598 788.791 412.949 788.195L411.225 787.18C411.121 787.356 410.955 787.512 410.664 787.633L411.43 789.481ZM412.943 788.204C413.292 787.625 413.436 786.954 413.436 786.247H411.436C411.436 786.688 411.347 786.978 411.23 787.171L412.943 788.204ZM413.436 786.247C413.436 785.535 413.293 784.862 412.95 784.276L411.224 785.287C411.347 785.496 411.436 785.8 411.436 786.247H413.436ZM412.955 784.285C412.607 783.677 412.081 783.24 411.436 782.96L410.64 784.795C410.939 784.925 411.111 785.09 411.218 785.277L412.955 784.285ZM411.45 782.966C410.814 782.68 410.074 782.562 409.274 782.562V784.562C409.894 784.562 410.33 784.656 410.627 784.789L411.45 782.966ZM409.274 782.562H406.786V784.562H409.274V782.562ZM405.786 783.562V798H407.786V783.562H405.786ZM406.786 797H403.095V799H406.786V797ZM411.644 790.536L415.982 798.479L417.737 797.521L413.399 789.578L411.644 790.536ZM416.859 797H412.786V799H416.859V797ZM413.667 797.529L409.423 789.586L407.659 790.528L411.904 798.471L413.667 797.529ZM408.541 791.057H412.521V789.057H408.541V791.057ZM418.18 783.588H417.18V784.588H418.18V783.588ZM418.18 780.545V779.545H417.18V780.545H418.18ZM432.516 780.545H433.516V779.545H432.516V780.545ZM432.516 783.588V784.588H433.516V783.588H432.516ZM427.172 783.588V782.588H426.172V783.588H427.172ZM427.172 798V799H428.172V798H427.172ZM423.524 798H422.524V799H423.524V798ZM423.524 783.588H424.524V782.588H423.524V783.588ZM419.18 783.588V780.545H417.18V783.588H419.18ZM418.18 781.545H432.516V779.545H418.18V781.545ZM431.516 780.545V783.588H433.516V780.545H431.516ZM432.516 782.588H427.172V784.588H432.516V782.588ZM426.172 783.588V798H428.172V783.588H426.172ZM427.172 797H423.524V799H427.172V797ZM424.524 798V783.588H422.524V798H424.524ZM423.524 782.588H418.18V784.588H423.524V782.588ZM447.965 779.727L448.931 779.987L449.27 778.727H447.965V779.727ZM442.34 800.625V801.625H443.107L443.306 800.885L442.34 800.625ZM439.212 800.625L438.247 800.365L437.908 801.625H439.212V800.625ZM444.837 779.727V778.727H444.071L443.872 779.467L444.837 779.727ZM447 779.467L441.375 800.365L443.306 800.885L448.931 779.987L447 779.467ZM442.34 799.625H439.212V801.625H442.34V799.625ZM440.178 800.885L445.803 779.987L443.872 779.467L438.247 800.365L440.178 800.885ZM444.837 780.727H447.965V778.727H444.837V780.727ZM455.337 798H454.337V799H455.337V798ZM455.337 780.545V779.545H454.337V780.545H455.337ZM466.894 780.545H467.894V779.545H466.894V780.545ZM466.894 783.588V784.588H467.894V783.588H466.894ZM459.028 783.588V782.588H458.028V783.588H459.028ZM459.028 787.747H458.028V788.747H459.028V787.747ZM466.127 787.747H467.127V786.747H466.127V787.747ZM466.127 790.79V791.79H467.127V790.79H466.127ZM459.028 790.79V789.79H458.028V790.79H459.028ZM459.028 798V799H460.028V798H459.028ZM456.337 798V780.545H454.337V798H456.337ZM455.337 781.545H466.894V779.545H455.337V781.545ZM465.894 780.545V783.588H467.894V780.545H465.894ZM466.894 782.588H459.028V784.588H466.894V782.588ZM458.028 783.588V787.747H460.028V783.588H458.028ZM459.028 788.747H466.127V786.747H459.028V788.747ZM465.127 787.747V790.79H467.127V787.747H465.127ZM466.127 789.79H459.028V791.79H466.127V789.79ZM458.028 790.79V798H460.028V790.79H458.028ZM459.028 797H455.337V799H459.028V797ZM473.067 780.545H474.067V779.545H473.067V780.545ZM473.067 798V799H474.067V798H473.067ZM469.376 798H468.376V799H469.376V798ZM469.376 780.545V779.545H468.376V780.545H469.376ZM472.067 780.545V798H474.067V780.545H472.067ZM473.067 797H469.376V799H473.067V797ZM470.376 798V780.545H468.376V798H470.376ZM469.376 781.545H473.067V779.545H469.376V781.545ZM490.702 780.545H491.702V779.545H490.702V780.545ZM490.702 798V799H491.702V798H490.702ZM487.515 798L486.692 798.569L486.99 799H487.515V798ZM479.921 787.014L480.744 786.446L480.446 786.014H479.921V787.014ZM479.793 787.014V786.014H478.793V787.014H479.793ZM479.793 798V799H480.793V798H479.793ZM476.103 798H475.103V799H476.103V798ZM476.103 780.545V779.545H475.103V780.545H476.103ZM479.342 780.545L480.166 779.98L479.868 779.545H479.342V780.545ZM486.876 791.523L486.051 792.089L486.349 792.523H486.876V791.523ZM487.029 791.523V792.523H488.029V791.523H487.029ZM487.029 780.545V779.545H486.029V780.545H487.029ZM489.702 780.545V798H491.702V780.545H489.702ZM490.702 797H487.515V799H490.702V797ZM488.338 797.431L480.744 786.446L479.099 787.583L486.692 798.569L488.338 797.431ZM479.921 786.014H479.793V788.014H479.921V786.014ZM478.793 787.014V798H480.793V787.014H478.793ZM479.793 797H476.103V799H479.793V797ZM477.103 798V780.545H475.103V798H477.103ZM476.103 781.545H479.342V779.545H476.103V781.545ZM478.517 781.111L486.051 792.089L487.7 790.957L480.166 779.98L478.517 781.111ZM486.876 792.523H487.029V790.523H486.876V792.523ZM488.029 791.523V780.545H486.029V791.523H488.029ZM487.029 781.545H490.702V779.545H487.029V781.545ZM497.442 780.545H498.442V779.545H497.442V780.545ZM497.442 798V799H498.442V798H497.442ZM493.751 798H492.751V799H493.751V798ZM493.751 780.545V779.545H492.751V780.545H493.751ZM496.442 780.545V798H498.442V780.545H496.442ZM497.442 797H493.751V799H497.442V797ZM494.751 798V780.545H492.751V798H494.751ZM493.751 781.545H497.442V779.545H493.751V781.545ZM509.947 785.565L508.952 785.664L509.041 786.565H509.947V785.565ZM505.438 783.648L505.807 784.577L505.818 784.573L505.438 783.648ZM504.484 784.338L503.684 783.738L503.676 783.748L504.484 784.338ZM504.16 785.344L505.159 785.38L505.16 785.362V785.344H504.16ZM504.356 786.162L503.502 786.683L503.507 786.69L503.511 786.697L504.356 786.162ZM504.961 786.767L504.406 787.599L504.413 787.603L504.419 787.608L504.961 786.767ZM505.847 787.202L505.498 788.139L505.505 788.141L505.512 788.144L505.847 787.202ZM506.921 787.509L507.154 786.536L507.147 786.534L507.14 786.533L506.921 787.509ZM508.489 787.884L508.257 788.856L508.264 788.858L508.271 788.859L508.489 787.884ZM510.586 788.565L510.178 789.478L510.586 788.565ZM512.239 789.614L512.904 788.867V788.867L512.239 789.614ZM513.322 791.08L512.411 791.493L512.415 791.501L513.322 791.08ZM513.722 793.014L514.722 793.02L514.722 793.006L513.722 793.014ZM512.904 795.793L512.08 795.226L512.08 795.227L512.904 795.793ZM510.586 797.608L510.976 798.529L510.979 798.528L510.586 797.608ZM503.265 797.599L502.881 798.523L502.883 798.524L503.265 797.599ZM500.827 795.682L500 796.244L500.005 796.25L500.827 795.682ZM499.915 792.52V791.52H498.893L498.916 792.543L499.915 792.52ZM503.487 792.52L504.484 792.452L504.421 791.52H503.487V792.52ZM503.989 793.986L503.191 794.588L503.196 794.594L503.201 794.601L503.989 793.986ZM505.191 794.864L504.821 795.793L504.834 795.798L505.191 794.864ZM508.532 794.881L508.168 793.949L508.165 793.951L508.532 794.881ZM509.614 794.122L510.399 794.742L509.614 794.122ZM509.648 792.017L508.887 792.665L508.895 792.674L509.648 792.017ZM508.643 791.335L508.249 792.254L508.253 792.256L508.643 791.335ZM507.032 790.824L506.788 791.794L506.798 791.796L507.032 790.824ZM505.131 790.347L505.375 789.377L505.368 789.375L505.131 790.347ZM501.646 788.668L500.979 789.413L501.646 788.668ZM500.376 785.591L501.376 785.595L501.376 785.586L500.376 785.591ZM501.219 782.821L500.41 782.233L500.408 782.237L501.219 782.821ZM510.381 780.972L509.964 781.88L509.966 781.881L510.381 780.972ZM512.648 782.821L511.823 783.385V783.385L512.648 782.821ZM513.484 785.565V786.565H514.5L514.484 785.549L513.484 785.565ZM510.942 785.467C510.848 784.521 510.426 783.72 509.662 783.158L508.476 784.768C508.746 784.967 508.909 785.234 508.952 785.664L510.942 785.467ZM509.662 783.158C508.918 782.61 507.984 782.392 506.964 782.392V784.392C507.716 784.392 508.185 784.554 508.476 784.768L509.662 783.158ZM506.964 782.392C506.273 782.392 505.627 782.489 505.058 782.723L505.818 784.573C506.079 784.466 506.45 784.392 506.964 784.392V782.392ZM505.069 782.718C504.519 782.937 504.037 783.267 503.684 783.738L505.284 784.938C505.374 784.818 505.528 784.688 505.807 784.577L505.069 782.718ZM503.676 783.748C503.332 784.219 503.16 784.762 503.16 785.344H505.16C505.16 785.175 505.204 785.048 505.291 784.928L503.676 783.748ZM503.16 785.307C503.143 785.786 503.244 786.259 503.502 786.683L505.21 785.641C505.184 785.599 505.154 785.526 505.159 785.38L503.16 785.307ZM503.511 786.697C503.742 787.061 504.048 787.36 504.406 787.599L505.516 785.935C505.363 785.833 505.265 785.729 505.2 785.626L503.511 786.697ZM504.419 787.608C504.745 787.817 505.107 787.993 505.498 788.139L506.197 786.265C505.917 786.161 505.688 786.046 505.503 785.926L504.419 787.608ZM505.512 788.144C505.889 788.278 506.286 788.391 506.703 788.484L507.14 786.533C506.795 786.455 506.476 786.364 506.183 786.26L505.512 788.144ZM506.689 788.481L508.257 788.856L508.722 786.911L507.154 786.536L506.689 788.481ZM508.271 788.859C508.975 789.017 509.609 789.225 510.178 789.478L510.994 787.652C510.29 787.338 509.527 787.091 508.708 786.908L508.271 788.859ZM510.178 789.478C510.732 789.726 511.194 790.022 511.574 790.361L512.904 788.867C512.353 788.376 511.713 787.973 510.994 787.652L510.178 789.478ZM511.574 790.361C511.937 790.684 512.214 791.059 512.411 791.493L514.232 790.666C513.918 789.975 513.473 789.373 512.904 788.867L511.574 790.361ZM512.415 791.501C512.606 791.913 512.718 792.413 512.722 793.022L514.722 793.006C514.716 792.161 514.56 791.371 514.229 790.658L512.415 791.501ZM512.722 793.009C512.718 793.902 512.493 794.627 512.08 795.226L513.728 796.36C514.395 795.39 514.716 794.263 514.722 793.02L512.722 793.009ZM512.08 795.227C511.67 795.824 511.059 796.318 510.193 796.688L510.979 798.528C512.135 798.034 513.07 797.318 513.729 796.358L512.08 795.227ZM510.196 796.687C509.345 797.048 508.272 797.247 506.947 797.247V799.247C508.463 799.247 509.816 799.02 510.976 798.529L510.196 796.687ZM506.947 797.247C505.638 797.247 504.545 797.046 503.647 796.675L502.883 798.524C504.075 799.016 505.438 799.247 506.947 799.247V797.247ZM503.648 796.676C502.769 796.311 502.116 795.787 501.65 795.113L500.005 796.25C500.709 797.27 501.682 798.025 502.881 798.523L503.648 796.676ZM501.654 795.12C501.205 794.459 500.94 793.603 500.915 792.497L498.916 792.543C498.948 793.949 499.291 795.201 500 796.244L501.654 795.12ZM499.915 793.52H503.487V791.52H499.915V793.52ZM502.489 792.588C502.539 793.328 502.757 794.013 503.191 794.588L504.788 793.384C504.63 793.175 504.513 792.882 504.484 792.452L502.489 792.588ZM503.201 794.601C503.622 795.141 504.173 795.535 504.821 795.793L505.561 793.934C505.209 793.795 504.959 793.604 504.778 793.371L503.201 794.601ZM504.834 795.798C505.472 796.041 506.167 796.153 506.904 796.153V794.153C506.369 794.153 505.922 794.072 505.548 793.929L504.834 795.798ZM506.904 796.153C507.623 796.153 508.296 796.049 508.899 795.811L508.165 793.951C507.848 794.076 507.435 794.153 506.904 794.153V796.153ZM508.896 795.812C509.492 795.579 510.012 795.232 510.399 794.742L508.829 793.503C508.705 793.66 508.504 793.818 508.168 793.949L508.896 795.812ZM510.399 794.742C510.797 794.238 510.998 793.646 510.998 793.006H508.998C508.998 793.206 508.943 793.359 508.829 793.503L510.399 794.742ZM510.998 793.006C510.998 792.4 510.811 791.829 510.402 791.36L508.895 792.674C508.952 792.74 508.998 792.828 508.998 793.006H510.998ZM510.41 791.369C510.051 790.947 509.569 790.641 509.032 790.414L508.253 792.256C508.603 792.404 508.791 792.553 508.887 792.665L510.41 791.369ZM509.037 790.416C508.532 790.2 507.939 790.014 507.266 789.852L506.798 791.796C507.398 791.941 507.878 792.095 508.249 792.254L509.037 790.416ZM507.276 789.854L505.375 789.377L504.888 791.316L506.788 791.794L507.276 789.854ZM505.368 789.375C504.006 789.044 503.008 788.544 502.312 787.922L500.979 789.413C501.988 790.314 503.314 790.934 504.895 791.318L505.368 789.375ZM502.312 787.922C501.702 787.377 501.371 786.64 501.376 785.595L499.376 785.587C499.369 787.122 499.885 788.436 500.979 789.413L502.312 787.922ZM501.376 785.586C501.371 784.721 501.597 784.008 502.031 783.405L500.408 782.237C499.705 783.213 499.369 784.347 499.376 785.596L501.376 785.586ZM502.028 783.409C502.487 782.778 503.127 782.266 503.985 781.886L503.175 780.057C502.034 780.563 501.1 781.284 500.41 782.233L502.028 783.409ZM503.985 781.886C504.839 781.508 505.834 781.307 506.989 781.307V779.307C505.6 779.307 504.322 779.549 503.175 780.057L503.985 781.886ZM506.989 781.307C508.172 781.307 509.155 781.509 509.964 781.88L510.798 780.063C509.676 779.548 508.398 779.307 506.989 779.307V781.307ZM509.966 781.881C510.792 782.258 511.398 782.763 511.823 783.385L513.474 782.257C512.82 781.3 511.914 780.572 510.796 780.062L509.966 781.881ZM511.823 783.385C512.243 783.999 512.47 784.72 512.484 785.582L514.484 785.549C514.464 784.331 514.134 783.222 513.474 782.257L511.823 783.385ZM513.484 784.565H509.947V786.565H513.484V784.565ZM516.205 798H515.205V799H516.205V798ZM516.205 780.545V779.545H515.205V780.545H516.205ZM519.895 780.545H520.895V779.545H519.895V780.545ZM519.895 787.747H518.895V788.747H519.895V787.747ZM527.386 787.747V788.747H528.386V787.747H527.386ZM527.386 780.545V779.545H526.386V780.545H527.386ZM531.068 780.545H532.068V779.545H531.068V780.545ZM531.068 798V799H532.068V798H531.068ZM527.386 798H526.386V799H527.386V798ZM527.386 790.79H528.386V789.79H527.386V790.79ZM519.895 790.79V789.79H518.895V790.79H519.895ZM519.895 798V799H520.895V798H519.895ZM517.205 798V780.545H515.205V798H517.205ZM516.205 781.545H519.895V779.545H516.205V781.545ZM518.895 780.545V787.747H520.895V780.545H518.895ZM519.895 788.747H527.386V786.747H519.895V788.747ZM528.386 787.747V780.545H526.386V787.747H528.386ZM527.386 781.545H531.068V779.545H527.386V781.545ZM530.068 780.545V798H532.068V780.545H530.068ZM531.068 797H527.386V799H531.068V797ZM528.386 798V790.79H526.386V798H528.386ZM527.386 789.79H519.895V791.79H527.386V789.79ZM518.895 790.79V798H520.895V790.79H518.895ZM519.895 797H516.205V799H519.895V797Z" fill="white" mask="url(#path-34-outside-1_139_339)"/>
<path d="M196.517 427V409.545H203.506C204.79 409.545 205.861 409.736 206.719 410.116C207.577 410.497 208.222 411.026 208.653 411.702C209.085 412.372 209.301 413.145 209.301 414.02C209.301 414.702 209.165 415.301 208.892 415.818C208.619 416.33 208.244 416.75 207.767 417.08C207.295 417.403 206.756 417.634 206.148 417.77V417.94C206.813 417.969 207.435 418.156 208.014 418.503C208.599 418.849 209.074 419.335 209.438 419.96C209.801 420.58 209.983 421.318 209.983 422.176C209.983 423.102 209.753 423.929 209.293 424.656C208.838 425.378 208.165 425.949 207.273 426.369C206.381 426.79 205.281 427 203.974 427H196.517ZM200.207 423.983H203.216C204.244 423.983 204.994 423.787 205.466 423.395C205.938 422.997 206.173 422.469 206.173 421.81C206.173 421.327 206.057 420.901 205.824 420.531C205.591 420.162 205.259 419.872 204.827 419.662C204.401 419.452 203.892 419.347 203.301 419.347H200.207V423.983ZM200.207 416.849H202.943C203.449 416.849 203.898 416.761 204.29 416.585C204.688 416.403 205 416.148 205.227 415.818C205.46 415.489 205.577 415.094 205.577 414.634C205.577 414.003 205.352 413.494 204.903 413.108C204.46 412.722 203.83 412.528 203.011 412.528H200.207V416.849ZM212.384 427V409.545H216.075V416.747H223.566V409.545H227.248V427H223.566V419.79H216.075V427H212.384ZM230.29 427V409.545H242.052V412.588H233.981V416.747H241.447V419.79H233.981V423.957H242.086V427H230.29ZM244.986 427V409.545H251.872C253.196 409.545 254.324 409.798 255.256 410.304C256.188 410.804 256.898 411.5 257.386 412.392C257.881 413.278 258.128 414.301 258.128 415.46C258.128 416.619 257.878 417.642 257.378 418.528C256.878 419.415 256.153 420.105 255.205 420.599C254.261 421.094 253.119 421.341 251.778 421.341H247.389V418.384H251.182C251.892 418.384 252.477 418.261 252.938 418.017C253.403 417.767 253.75 417.423 253.977 416.986C254.21 416.543 254.327 416.034 254.327 415.46C254.327 414.881 254.21 414.375 253.977 413.943C253.75 413.506 253.403 413.168 252.938 412.929C252.472 412.685 251.881 412.562 251.165 412.562H248.676V427H244.986ZM261.518 427H257.563L263.589 409.545H268.344L274.362 427H270.407L266.035 413.534H265.898L261.518 427ZM261.271 420.139H270.612V423.02H261.271V420.139Z" fill="white"/>
<path d="M529.517 397V379.545H536.403C537.727 379.545 538.855 379.798 539.787 380.304C540.719 380.804 541.429 381.5 541.918 382.392C542.412 383.278 542.659 384.301 542.659 385.46C542.659 386.619 542.409 387.642 541.909 388.528C541.409 389.415 540.685 390.105 539.736 390.599C538.793 391.094 537.651 391.341 536.31 391.341H531.92V388.384H535.713C536.423 388.384 537.009 388.261 537.469 388.017C537.935 387.767 538.281 387.423 538.509 386.986C538.741 386.543 538.858 386.034 538.858 385.46C538.858 384.881 538.741 384.375 538.509 383.943C538.281 383.506 537.935 383.168 537.469 382.929C537.003 382.685 536.412 382.562 535.696 382.562H533.207V397H529.517ZM555.837 379.545H559.528V390.881C559.528 392.153 559.224 393.267 558.616 394.222C558.013 395.176 557.17 395.92 556.085 396.455C554.999 396.983 553.735 397.247 552.292 397.247C550.843 397.247 549.576 396.983 548.491 396.455C547.406 395.92 546.562 395.176 545.96 394.222C545.357 393.267 545.056 392.153 545.056 390.881V379.545H548.746V390.565C548.746 391.23 548.891 391.821 549.181 392.338C549.477 392.855 549.891 393.261 550.425 393.557C550.96 393.852 551.582 394 552.292 394C553.008 394 553.63 393.852 554.158 393.557C554.692 393.261 555.104 392.855 555.394 392.338C555.69 391.821 555.837 391.23 555.837 390.565V379.545ZM572.033 384.565C571.964 383.878 571.672 383.344 571.155 382.963C570.638 382.582 569.936 382.392 569.05 382.392C568.447 382.392 567.939 382.477 567.524 382.648C567.109 382.812 566.791 383.043 566.57 383.338C566.354 383.634 566.246 383.969 566.246 384.344C566.234 384.656 566.3 384.929 566.442 385.162C566.589 385.395 566.791 385.597 567.047 385.767C567.303 385.932 567.598 386.077 567.933 386.202C568.268 386.321 568.626 386.423 569.007 386.509L570.575 386.884C571.337 387.054 572.036 387.281 572.672 387.565C573.308 387.849 573.859 388.199 574.325 388.614C574.791 389.028 575.152 389.517 575.408 390.08C575.669 390.642 575.803 391.287 575.808 392.014C575.803 393.082 575.53 394.009 574.99 394.793C574.456 395.571 573.683 396.176 572.672 396.608C571.666 397.034 570.453 397.247 569.033 397.247C567.624 397.247 566.396 397.031 565.351 396.599C564.311 396.168 563.499 395.528 562.913 394.682C562.334 393.83 562.03 392.776 562.001 391.52H565.572C565.612 392.105 565.78 392.594 566.075 392.986C566.376 393.372 566.777 393.665 567.277 393.864C567.783 394.057 568.354 394.153 568.99 394.153C569.615 394.153 570.158 394.062 570.618 393.881C571.084 393.699 571.445 393.446 571.7 393.122C571.956 392.798 572.084 392.426 572.084 392.006C572.084 391.614 571.967 391.284 571.734 391.017C571.507 390.75 571.172 390.523 570.729 390.335C570.291 390.148 569.754 389.977 569.118 389.824L567.217 389.347C565.746 388.989 564.584 388.429 563.732 387.668C562.879 386.906 562.456 385.881 562.462 384.591C562.456 383.534 562.737 382.611 563.305 381.821C563.879 381.031 564.666 380.415 565.666 379.972C566.666 379.528 567.803 379.307 569.075 379.307C570.371 379.307 571.501 379.528 572.467 379.972C573.439 380.415 574.195 381.031 574.734 381.821C575.274 382.611 575.553 383.526 575.57 384.565H572.033ZM580.901 397H576.946L582.972 379.545H587.727L593.744 397H589.79L585.418 383.534H585.281L580.901 397ZM580.653 390.139H589.994V393.02H580.653V390.139ZM593.048 382.588V379.545H607.383V382.588H602.039V397H598.391V382.588H593.048ZM615.298 397V379.545H622.185C623.503 379.545 624.628 379.781 625.56 380.253C626.497 380.719 627.21 381.381 627.699 382.239C628.193 383.091 628.44 384.094 628.44 385.247C628.44 386.406 628.19 387.403 627.69 388.239C627.19 389.068 626.466 389.705 625.517 390.148C624.574 390.591 623.432 390.812 622.091 390.812H617.48V387.847H621.494C622.199 387.847 622.784 387.75 623.25 387.557C623.716 387.364 624.063 387.074 624.29 386.688C624.523 386.301 624.639 385.821 624.639 385.247C624.639 384.668 624.523 384.179 624.29 383.781C624.063 383.384 623.713 383.082 623.241 382.878C622.776 382.668 622.188 382.562 621.477 382.562H618.989V397H615.298ZM624.724 389.057L629.062 397H624.989L620.744 389.057H624.724ZM634.057 397H630.102L636.128 379.545H640.884L646.901 397H642.946L638.574 383.534H638.438L634.057 397ZM633.81 390.139H643.151V393.02H633.81V390.139ZM663.601 379.545V397H660.413L652.82 386.014H652.692V397H649.001V379.545H652.24L659.774 390.523H659.928V379.545H663.601ZM682.05 385.656H678.317C678.249 385.173 678.11 384.744 677.9 384.369C677.69 383.989 677.42 383.665 677.09 383.398C676.761 383.131 676.38 382.926 675.948 382.784C675.522 382.642 675.059 382.571 674.559 382.571C673.656 382.571 672.869 382.795 672.198 383.244C671.528 383.687 671.008 384.335 670.638 385.188C670.269 386.034 670.085 387.062 670.085 388.273C670.085 389.517 670.269 390.562 670.638 391.409C671.013 392.256 671.536 392.895 672.207 393.327C672.877 393.759 673.653 393.974 674.533 393.974C675.028 393.974 675.485 393.909 675.906 393.778C676.332 393.648 676.71 393.457 677.039 393.207C677.369 392.952 677.641 392.642 677.857 392.278C678.079 391.915 678.232 391.5 678.317 391.034L682.05 391.051C681.954 391.852 681.712 392.625 681.326 393.369C680.945 394.108 680.431 394.77 679.783 395.355C679.141 395.935 678.374 396.395 677.482 396.736C676.596 397.071 675.593 397.239 674.474 397.239C672.917 397.239 671.525 396.886 670.298 396.182C669.076 395.477 668.11 394.457 667.4 393.122C666.695 391.787 666.343 390.17 666.343 388.273C666.343 386.369 666.701 384.75 667.417 383.415C668.133 382.08 669.104 381.062 670.332 380.364C671.559 379.659 672.94 379.307 674.474 379.307C675.485 379.307 676.423 379.449 677.286 379.733C678.156 380.017 678.925 380.432 679.596 380.977C680.266 381.517 680.812 382.179 681.232 382.963C681.658 383.747 681.931 384.645 682.05 385.656ZM687.377 397H683.423L689.448 379.545H694.204L700.221 397H696.266L691.894 383.534H691.758L687.377 397ZM687.13 390.139H696.471V393.02H687.13V390.139ZM716.921 379.545V397H713.734L706.14 386.014H706.012V397H702.322V379.545H705.56L713.094 390.523H713.248V379.545H716.921ZM731.544 385.188C731.425 384.773 731.257 384.406 731.041 384.088C730.825 383.764 730.561 383.491 730.249 383.27C729.942 383.043 729.589 382.869 729.192 382.75C728.8 382.631 728.365 382.571 727.888 382.571C726.996 382.571 726.212 382.793 725.536 383.236C724.865 383.679 724.342 384.324 723.967 385.17C723.592 386.011 723.405 387.04 723.405 388.256C723.405 389.472 723.589 390.506 723.959 391.358C724.328 392.21 724.851 392.861 725.527 393.31C726.203 393.753 727.001 393.974 727.922 393.974C728.757 393.974 729.47 393.827 730.061 393.531C730.658 393.23 731.112 392.807 731.425 392.261C731.743 391.716 731.902 391.071 731.902 390.327L732.652 390.438H728.152V387.659H735.456V389.858C735.456 391.392 735.132 392.71 734.484 393.812C733.837 394.909 732.945 395.756 731.808 396.352C730.672 396.943 729.371 397.239 727.905 397.239C726.268 397.239 724.831 396.878 723.592 396.156C722.354 395.429 721.388 394.398 720.695 393.062C720.007 391.722 719.663 390.131 719.663 388.29C719.663 386.875 719.868 385.614 720.277 384.506C720.692 383.392 721.271 382.449 722.016 381.676C722.76 380.903 723.626 380.315 724.615 379.912C725.604 379.509 726.675 379.307 727.828 379.307C728.817 379.307 729.737 379.452 730.589 379.741C731.442 380.026 732.197 380.429 732.857 380.952C733.521 381.474 734.064 382.097 734.484 382.818C734.905 383.534 735.175 384.324 735.294 385.188H731.544ZM740.697 397H736.743L742.768 379.545H747.524L753.541 397H749.587L745.214 383.534H745.078L740.697 397ZM740.45 390.139H749.791V393.02H740.45V390.139ZM770.241 379.545V397H767.054L759.46 386.014H759.332V397H755.642V379.545H758.881L766.415 390.523H766.568V379.545H770.241ZM529.517 426V408.545H533.207V416.241H533.438L539.719 408.545H544.142L537.665 416.361L544.219 426H539.804L535.023 418.824L533.207 421.04V426H529.517ZM561.119 417.273C561.119 419.176 560.759 420.795 560.037 422.131C559.321 423.466 558.344 424.486 557.105 425.19C555.872 425.889 554.486 426.239 552.946 426.239C551.395 426.239 550.003 425.886 548.77 425.182C547.537 424.477 546.563 423.457 545.847 422.122C545.131 420.787 544.773 419.17 544.773 417.273C544.773 415.369 545.131 413.75 545.847 412.415C546.563 411.08 547.537 410.062 548.77 409.364C550.003 408.659 551.395 408.307 552.946 408.307C554.486 408.307 555.872 408.659 557.105 409.364C558.344 410.062 559.321 411.08 560.037 412.415C560.759 413.75 561.119 415.369 561.119 417.273ZM557.378 417.273C557.378 416.04 557.193 415 556.824 414.153C556.46 413.307 555.946 412.665 555.281 412.227C554.616 411.79 553.838 411.571 552.946 411.571C552.054 411.571 551.276 411.79 550.611 412.227C549.946 412.665 549.429 413.307 549.06 414.153C548.696 415 548.514 416.04 548.514 417.273C548.514 418.506 548.696 419.545 549.06 420.392C549.429 421.239 549.946 421.881 550.611 422.318C551.276 422.756 552.054 422.974 552.946 422.974C553.838 422.974 554.616 422.756 555.281 422.318C555.946 421.881 556.46 421.239 556.824 420.392C557.193 419.545 557.378 418.506 557.378 417.273ZM563.853 426V408.545H567.543V416.241H567.773L574.055 408.545H578.478L572.001 416.361L578.555 426H574.14L569.359 418.824L567.543 421.04V426H563.853Z" fill="white"/>
<path d="M960.517 36V18.5455H967.506C968.79 18.5455 969.861 18.7358 970.719 19.1165C971.577 19.4972 972.222 20.0256 972.653 20.7017C973.085 21.3722 973.301 22.1449 973.301 23.0199C973.301 23.7017 973.165 24.3011 972.892 24.8182C972.619 25.3295 972.244 25.75 971.767 26.0795C971.295 26.4034 970.756 26.6335 970.148 26.7699V26.9403C970.813 26.9687 971.435 27.1562 972.014 27.5028C972.599 27.8494 973.074 28.3352 973.438 28.9602C973.801 29.5795 973.983 30.3182 973.983 31.1761C973.983 32.1023 973.753 32.929 973.293 33.6562C972.838 34.3778 972.165 34.9489 971.273 35.3693C970.381 35.7898 969.281 36 967.974 36H960.517ZM964.207 32.983H967.216C968.244 32.983 968.994 32.7869 969.466 32.3949C969.938 31.9972 970.173 31.4687 970.173 30.8097C970.173 30.3267 970.057 29.9006 969.824 29.5312C969.591 29.1619 969.259 28.8722 968.827 28.6619C968.401 28.4517 967.892 28.3466 967.301 28.3466H964.207V32.983ZM964.207 25.8494H966.943C967.449 25.8494 967.898 25.7614 968.29 25.5852C968.688 25.4034 969 25.1477 969.227 24.8182C969.46 24.4886 969.577 24.0938 969.577 23.6335C969.577 23.0028 969.352 22.4943 968.903 22.108C968.46 21.7216 967.83 21.5284 967.011 21.5284H964.207V25.8494ZM987.165 18.5455H990.856V29.8807C990.856 31.1534 990.552 32.267 989.944 33.2216C989.342 34.1761 988.498 34.9205 987.413 35.4545C986.327 35.983 985.063 36.2472 983.62 36.2472C982.171 36.2472 980.904 35.983 979.819 35.4545C978.734 34.9205 977.89 34.1761 977.288 33.2216C976.685 32.267 976.384 31.1534 976.384 29.8807V18.5455H980.075V29.5653C980.075 30.2301 980.219 30.821 980.509 31.3381C980.805 31.8551 981.219 32.2614 981.754 32.5568C982.288 32.8523 982.91 33 983.62 33C984.336 33 984.958 32.8523 985.487 32.5568C986.021 32.2614 986.433 31.8551 986.722 31.3381C987.018 30.821 987.165 30.2301 987.165 29.5653V18.5455ZM993.892 18.5455H998.443L1003.25 30.2727H1003.45L1008.26 18.5455H1012.81V36H1009.23V24.6392H1009.09L1004.57 35.9148H1002.13L997.616 24.5966H997.472V36H993.892V18.5455ZM1015.85 36V18.5455H1022.84C1024.13 18.5455 1025.2 18.7358 1026.05 19.1165C1026.91 19.4972 1027.56 20.0256 1027.99 20.7017C1028.42 21.3722 1028.64 22.1449 1028.64 23.0199C1028.64 23.7017 1028.5 24.3011 1028.23 24.8182C1027.96 25.3295 1027.58 25.75 1027.1 26.0795C1026.63 26.4034 1026.09 26.6335 1025.48 26.7699V26.9403C1026.15 26.9687 1026.77 27.1562 1027.35 27.5028C1027.94 27.8494 1028.41 28.3352 1028.77 28.9602C1029.14 29.5795 1029.32 30.3182 1029.32 31.1761C1029.32 32.1023 1029.09 32.929 1028.63 33.6562C1028.17 34.3778 1027.5 34.9489 1026.61 35.3693C1025.72 35.7898 1024.62 36 1023.31 36H1015.85ZM1019.54 32.983H1022.55C1023.58 32.983 1024.33 32.7869 1024.8 32.3949C1025.27 31.9972 1025.51 31.4687 1025.51 30.8097C1025.51 30.3267 1025.39 29.9006 1025.16 29.5312C1024.93 29.1619 1024.59 28.8722 1024.16 28.6619C1023.74 28.4517 1023.23 28.3466 1022.64 28.3466H1019.54V32.983ZM1019.54 25.8494H1022.28C1022.78 25.8494 1023.23 25.7614 1023.63 25.5852C1024.02 25.4034 1024.34 25.1477 1024.56 24.8182C1024.8 24.4886 1024.91 24.0938 1024.91 23.6335C1024.91 23.0028 1024.69 22.4943 1024.24 22.108C1023.8 21.7216 1023.17 21.5284 1022.35 21.5284H1019.54V25.8494ZM1031.72 36V18.5455H1035.41V32.9574H1042.89V36H1031.72ZM1045.34 36V18.5455H1057.1V21.5881H1049.03V25.7472H1056.49V28.7898H1049.03V32.9574H1057.13V36H1045.34ZM1066.22 36H1060.03V18.5455H1066.27C1068.03 18.5455 1069.54 18.8949 1070.81 19.5938C1072.07 20.2869 1073.05 21.2841 1073.73 22.5852C1074.42 23.8864 1074.76 25.4432 1074.76 27.2557C1074.76 29.0739 1074.42 30.6364 1073.73 31.9432C1073.05 33.25 1072.07 34.2528 1070.79 34.9517C1069.52 35.6506 1067.99 36 1066.22 36ZM1063.72 32.8381H1066.07C1067.16 32.8381 1068.08 32.6449 1068.82 32.2585C1069.57 31.8665 1070.13 31.2614 1070.51 30.4432C1070.89 29.6193 1071.08 28.5568 1071.08 27.2557C1071.08 25.9659 1070.89 24.9119 1070.51 24.0938C1070.13 23.2756 1069.57 22.6733 1068.83 22.2869C1068.08 21.9006 1067.17 21.7074 1066.08 21.7074H1063.72V32.8381ZM1077.49 36V18.5455H1089.25V21.5881H1081.18V25.7472H1088.65V28.7898H1081.18V32.9574H1089.29V36H1077.49ZM1092.19 36V18.5455H1103.95V21.5881H1095.88V25.7472H1103.35V28.7898H1095.88V32.9574H1103.98V36H1092.19ZM1116.35 23.5653C1116.28 22.8778 1115.99 22.3437 1115.48 21.9631C1114.96 21.5824 1114.26 21.392 1113.37 21.392C1112.77 21.392 1112.26 21.4773 1111.84 21.6477C1111.43 21.8125 1111.11 22.0426 1110.89 22.3381C1110.67 22.6335 1110.57 22.9688 1110.57 23.3438C1110.55 23.6562 1110.62 23.929 1110.76 24.1619C1110.91 24.3949 1111.11 24.5966 1111.37 24.767C1111.62 24.9318 1111.92 25.0767 1112.25 25.2017C1112.59 25.321 1112.95 25.4233 1113.33 25.5085L1114.9 25.8835C1115.66 26.054 1116.36 26.2812 1116.99 26.5653C1117.63 26.8494 1118.18 27.1989 1118.65 27.6136C1119.11 28.0284 1119.47 28.517 1119.73 29.0795C1119.99 29.642 1120.12 30.2869 1120.13 31.0142C1120.12 32.0824 1119.85 33.0085 1119.31 33.7926C1118.78 34.571 1118 35.1761 1116.99 35.608C1115.99 36.0341 1114.77 36.2472 1113.35 36.2472C1111.94 36.2472 1110.72 36.0312 1109.67 35.5994C1108.63 35.1676 1107.82 34.5284 1107.23 33.6818C1106.65 32.8295 1106.35 31.7756 1106.32 30.5199H1109.89C1109.93 31.1051 1110.1 31.5937 1110.4 31.9858C1110.7 32.3722 1111.1 32.6648 1111.6 32.8636C1112.1 33.0568 1112.67 33.1534 1113.31 33.1534C1113.94 33.1534 1114.48 33.0625 1114.94 32.8807C1115.4 32.6989 1115.76 32.446 1116.02 32.1222C1116.28 31.7983 1116.4 31.4261 1116.4 31.0057C1116.4 30.6136 1116.29 30.2841 1116.05 30.017C1115.83 29.75 1115.49 29.5227 1115.05 29.3352C1114.61 29.1477 1114.07 28.9773 1113.44 28.8239L1111.54 28.3466C1110.07 27.9886 1108.9 27.429 1108.05 26.6676C1107.2 25.9062 1106.78 24.8807 1106.78 23.5909C1106.78 22.5341 1107.06 21.6108 1107.63 20.821C1108.2 20.0312 1108.99 19.4148 1109.99 18.9716C1110.99 18.5284 1112.12 18.3068 1113.4 18.3068C1114.69 18.3068 1115.82 18.5284 1116.79 18.9716C1117.76 19.4148 1118.51 20.0312 1119.05 20.821C1119.59 21.6108 1119.87 22.5256 1119.89 23.5653H1116.35ZM1143.57 24.6562H1139.83C1139.76 24.1733 1139.63 23.7443 1139.42 23.3693C1139.21 22.9886 1138.94 22.6648 1138.61 22.3977C1138.28 22.1307 1137.9 21.9261 1137.46 21.7841C1137.04 21.642 1136.57 21.571 1136.07 21.571C1135.17 21.571 1134.38 21.7955 1133.71 22.2443C1133.04 22.6875 1132.52 23.3352 1132.15 24.1875C1131.78 25.0341 1131.6 26.0625 1131.6 27.2727C1131.6 28.517 1131.78 29.5625 1132.15 30.4091C1132.53 31.2557 1133.05 31.8949 1133.72 32.3267C1134.39 32.7585 1135.17 32.9744 1136.05 32.9744C1136.54 32.9744 1137 32.9091 1137.42 32.7784C1137.85 32.6477 1138.23 32.4574 1138.55 32.2074C1138.88 31.9517 1139.16 31.642 1139.37 31.2784C1139.59 30.9148 1139.75 30.5 1139.83 30.0341L1143.57 30.0511C1143.47 30.8523 1143.23 31.625 1142.84 32.3693C1142.46 33.108 1141.95 33.7699 1141.3 34.3551C1140.66 34.9347 1139.89 35.3949 1139 35.7358C1138.11 36.071 1137.11 36.2386 1135.99 36.2386C1134.43 36.2386 1133.04 35.8864 1131.81 35.1818C1130.59 34.4773 1129.63 33.4574 1128.92 32.1222C1128.21 30.7869 1127.86 29.1705 1127.86 27.2727C1127.86 25.3693 1128.22 23.75 1128.93 22.4148C1129.65 21.0795 1130.62 20.0625 1131.85 19.3636C1133.07 18.6591 1134.46 18.3068 1135.99 18.3068C1137 18.3068 1137.94 18.4489 1138.8 18.733C1139.67 19.017 1140.44 19.4318 1141.11 19.9773C1141.78 20.517 1142.33 21.179 1142.75 21.9631C1143.17 22.7472 1143.45 23.6449 1143.57 24.6562ZM1148.89 36H1144.94L1150.96 18.5455H1155.72L1161.74 36H1157.78L1153.41 22.5341H1153.27L1148.89 36ZM1148.65 29.1392H1157.99V32.0199H1148.65V29.1392ZM1163.84 36V18.5455H1175.39V21.5881H1167.53V25.7472H1174.63V28.7898H1167.53V36H1163.84ZM1177.88 36V18.5455H1189.64V21.5881H1181.57V25.7472H1189.03V28.7898H1181.57V32.9574H1189.67V36H1177.88Z" fill="white"/>
<path d="M943.517 129.545H948.068L952.875 141.273H953.08L957.886 129.545H962.438V147H958.858V135.639H958.713L954.196 146.915H951.759L947.241 135.597H947.097V147H943.517V129.545ZM976.259 129.545H979.95V140.881C979.95 142.153 979.646 143.267 979.038 144.222C978.435 145.176 977.592 145.92 976.506 146.455C975.421 146.983 974.157 147.247 972.714 147.247C971.265 147.247 969.998 146.983 968.913 146.455C967.827 145.92 966.984 145.176 966.381 144.222C965.779 143.267 965.478 142.153 965.478 140.881V129.545H969.168V140.565C969.168 141.23 969.313 141.821 969.603 142.338C969.898 142.855 970.313 143.261 970.847 143.557C971.381 143.852 972.004 144 972.714 144C973.43 144 974.052 143.852 974.58 143.557C975.114 143.261 975.526 142.855 975.816 142.338C976.112 141.821 976.259 141.23 976.259 140.565V129.545ZM982.798 147V144.81L991.509 132.588H982.781V129.545H996.145V131.736L987.426 143.957H996.162V147H982.798ZM1002.68 129.545V147H998.994V129.545H1002.68ZM1016.5 129.545H1020.19V140.881C1020.19 142.153 1019.89 143.267 1019.28 144.222C1018.68 145.176 1017.83 145.92 1016.75 146.455C1015.66 146.983 1014.4 147.247 1012.96 147.247C1011.51 147.247 1010.24 146.983 1009.15 146.455C1008.07 145.92 1007.23 145.176 1006.62 144.222C1006.02 143.267 1005.72 142.153 1005.72 140.881V129.545H1009.41V140.565C1009.41 141.23 1009.56 141.821 1009.85 142.338C1010.14 142.855 1010.56 143.261 1011.09 143.557C1011.62 143.852 1012.25 144 1012.96 144C1013.67 144 1014.29 143.852 1014.82 143.557C1015.36 143.261 1015.77 142.855 1016.06 142.338C1016.35 141.821 1016.5 141.23 1016.5 140.565V129.545ZM1023.23 129.545H1027.78L1032.59 141.273H1032.79L1037.6 129.545H1042.15V147H1038.57V135.639H1038.42L1033.91 146.915H1031.47L1026.95 135.597H1026.81V147H1023.23V129.545ZM1056.03 147.256C1054.82 147.256 1053.78 147.04 1052.91 146.608C1052.03 146.176 1051.36 145.591 1050.89 144.852C1050.42 144.108 1050.19 143.278 1050.19 142.364C1050.19 141.682 1050.33 141.077 1050.6 140.548C1050.87 140.02 1051.25 139.534 1051.74 139.091C1052.23 138.642 1052.8 138.196 1053.45 137.753L1056.83 135.528C1057.27 135.25 1057.59 134.957 1057.79 134.651C1058 134.338 1058.1 134 1058.1 133.636C1058.1 133.29 1057.96 132.969 1057.68 132.673C1057.4 132.378 1057.01 132.233 1056.5 132.239C1056.16 132.239 1055.86 132.315 1055.61 132.469C1055.36 132.616 1055.16 132.812 1055.02 133.057C1054.89 133.295 1054.82 133.562 1054.82 133.858C1054.82 134.222 1054.92 134.591 1055.12 134.966C1055.33 135.341 1055.6 135.739 1055.94 136.159C1056.28 136.574 1056.66 137.023 1057.06 137.506L1065.33 147H1061.55L1054.65 139.312C1054.19 138.795 1053.74 138.256 1053.28 137.693C1052.83 137.125 1052.46 136.523 1052.16 135.886C1051.86 135.244 1051.71 134.548 1051.71 133.798C1051.71 132.952 1051.9 132.19 1052.29 131.514C1052.69 130.838 1053.25 130.304 1053.97 129.912C1054.68 129.514 1055.52 129.315 1056.47 129.315C1057.4 129.315 1058.21 129.506 1058.88 129.886C1059.56 130.261 1060.09 130.761 1060.45 131.386C1060.82 132.006 1061 132.687 1061 133.432C1061 134.256 1060.8 135.003 1060.39 135.673C1059.99 136.338 1059.42 136.935 1058.69 137.463L1055.12 140.028C1054.64 140.381 1054.28 140.741 1054.05 141.111C1053.82 141.474 1053.71 141.824 1053.71 142.159C1053.71 142.574 1053.81 142.946 1054.02 143.276C1054.22 143.605 1054.51 143.866 1054.89 144.06C1055.26 144.247 1055.7 144.341 1056.21 144.341C1056.82 144.341 1057.43 144.202 1058.02 143.923C1058.62 143.639 1059.17 143.239 1059.66 142.722C1060.15 142.199 1060.55 141.58 1060.84 140.864C1061.14 140.148 1061.29 139.355 1061.29 138.486H1064.29C1064.29 139.554 1064.18 140.517 1063.95 141.375C1063.71 142.227 1063.39 142.972 1062.97 143.608C1062.56 144.239 1062.08 144.756 1061.55 145.159C1061.38 145.267 1061.22 145.369 1061.06 145.466C1060.9 145.562 1060.73 145.665 1060.56 145.773C1059.91 146.295 1059.19 146.673 1058.39 146.906C1057.59 147.139 1056.81 147.256 1056.03 147.256ZM1084.04 135.188C1083.92 134.773 1083.76 134.406 1083.54 134.088C1083.33 133.764 1083.06 133.491 1082.75 133.27C1082.44 133.043 1082.09 132.869 1081.69 132.75C1081.3 132.631 1080.87 132.571 1080.39 132.571C1079.5 132.571 1078.71 132.793 1078.04 133.236C1077.37 133.679 1076.84 134.324 1076.47 135.17C1076.09 136.011 1075.9 137.04 1075.9 138.256C1075.9 139.472 1076.09 140.506 1076.46 141.358C1076.83 142.21 1077.35 142.861 1078.03 143.31C1078.7 143.753 1079.5 143.974 1080.42 143.974C1081.26 143.974 1081.97 143.827 1082.56 143.531C1083.16 143.23 1083.61 142.807 1083.92 142.261C1084.24 141.716 1084.4 141.071 1084.4 140.327L1085.15 140.438H1080.65V137.659H1087.96V139.858C1087.96 141.392 1087.63 142.71 1086.98 143.812C1086.34 144.909 1085.44 145.756 1084.31 146.352C1083.17 146.943 1081.87 147.239 1080.4 147.239C1078.77 147.239 1077.33 146.878 1076.09 146.156C1074.85 145.429 1073.89 144.398 1073.19 143.062C1072.51 141.722 1072.16 140.131 1072.16 138.29C1072.16 136.875 1072.37 135.614 1072.78 134.506C1073.19 133.392 1073.77 132.449 1074.52 131.676C1075.26 130.903 1076.13 130.315 1077.12 129.912C1078.1 129.509 1079.17 129.307 1080.33 129.307C1081.32 129.307 1082.24 129.452 1083.09 129.741C1083.94 130.026 1084.7 130.429 1085.36 130.952C1086.02 131.474 1086.56 132.097 1086.98 132.818C1087.4 133.534 1087.67 134.324 1087.79 135.188H1084.04ZM1093.2 147H1089.24L1095.27 129.545H1100.02L1106.04 147H1102.09L1097.71 133.534H1097.58L1093.2 147ZM1092.95 140.139H1102.29V143.02H1092.95V140.139ZM1108.14 147V129.545H1111.83V143.957H1119.32V147H1108.14ZM1121.76 147V129.545H1133.52V132.588H1125.45V136.747H1132.92V139.79H1125.45V143.957H1133.55V147H1121.76ZM1136.45 147V129.545H1143.34C1144.66 129.545 1145.78 129.781 1146.72 130.253C1147.65 130.719 1148.37 131.381 1148.86 132.239C1149.35 133.091 1149.6 134.094 1149.6 135.247C1149.6 136.406 1149.35 137.403 1148.85 138.239C1148.35 139.068 1147.62 139.705 1146.67 140.148C1145.73 140.591 1144.59 140.812 1143.25 140.812H1138.64V137.847H1142.65C1143.36 137.847 1143.94 137.75 1144.41 137.557C1144.87 137.364 1145.22 137.074 1145.45 136.688C1145.68 136.301 1145.8 135.821 1145.8 135.247C1145.8 134.668 1145.68 134.179 1145.45 133.781C1145.22 133.384 1144.87 133.082 1144.4 132.878C1143.93 132.668 1143.34 132.562 1142.63 132.562H1140.14V147H1136.45ZM1145.88 139.057L1150.22 147H1146.14L1141.9 139.057H1145.88ZM1155.89 129.545V147H1152.2V129.545H1155.89ZM942.852 161.588V158.545H957.188V161.588H951.844V176H948.196V161.588H942.852ZM970.33 158.545H974.02V169.881C974.02 171.153 973.716 172.267 973.108 173.222C972.506 174.176 971.662 174.92 970.577 175.455C969.491 175.983 968.227 176.247 966.784 176.247C965.335 176.247 964.068 175.983 962.983 175.455C961.898 174.92 961.054 174.176 960.452 173.222C959.849 172.267 959.548 171.153 959.548 169.881V158.545H963.239V169.565C963.239 170.23 963.384 170.821 963.673 171.338C963.969 171.855 964.384 172.261 964.918 172.557C965.452 172.852 966.074 173 966.784 173C967.5 173 968.122 172.852 968.651 172.557C969.185 172.261 969.597 171.855 969.886 171.338C970.182 170.821 970.33 170.23 970.33 169.565V158.545ZM980.065 176H976.11L982.136 158.545H986.891L992.908 176H988.954L984.582 162.534H984.445L980.065 176ZM979.817 169.139H989.158V172.02H979.817V169.139ZM1009.61 158.545V176H1006.42L998.827 165.014H998.7V176H995.009V158.545H998.248L1005.78 169.523H1005.94V158.545H1009.61ZM1012.66 176V158.545H1016.35V166.241H1016.58L1022.86 158.545H1027.28L1020.81 166.361L1027.36 176H1022.94L1018.16 168.824L1016.35 171.04V176H1012.66ZM1039.99 158.545H1043.68V169.881C1043.68 171.153 1043.37 172.267 1042.76 173.222C1042.16 174.176 1041.32 174.92 1040.23 175.455C1039.15 175.983 1037.88 176.247 1036.44 176.247C1034.99 176.247 1033.72 175.983 1032.64 175.455C1031.55 174.92 1030.71 174.176 1030.11 173.222C1029.51 172.267 1029.2 171.153 1029.2 169.881V158.545H1032.89V169.565C1032.89 170.23 1033.04 170.821 1033.33 171.338C1033.63 171.855 1034.04 172.261 1034.57 172.557C1035.11 172.852 1035.73 173 1036.44 173C1037.16 173 1037.78 172.852 1038.31 172.557C1038.84 172.261 1039.25 171.855 1039.54 171.338C1039.84 170.821 1039.99 170.23 1039.99 169.565V158.545ZM1052.27 176V158.545H1063.82V161.588H1055.96V165.747H1063.06V168.79H1055.96V176H1052.27ZM1067.13 176H1063.18L1069.21 158.545H1073.96L1079.98 176H1076.02L1071.65 162.534H1071.52L1067.13 176ZM1066.89 169.139H1076.23V172.02H1066.89V169.139ZM1092.86 158.545H1096.55V169.881C1096.55 171.153 1096.25 172.267 1095.64 173.222C1095.04 174.176 1094.19 174.92 1093.11 175.455C1092.02 175.983 1090.76 176.247 1089.32 176.247C1087.87 176.247 1086.6 175.983 1085.51 175.455C1084.43 174.92 1083.59 174.176 1082.98 173.222C1082.38 172.267 1082.08 171.153 1082.08 169.881V158.545H1085.77V169.565C1085.77 170.23 1085.91 170.821 1086.2 171.338C1086.5 171.855 1086.91 172.261 1087.45 172.557C1087.98 172.852 1088.61 173 1089.32 173C1090.03 173 1090.65 172.852 1091.18 172.557C1091.72 172.261 1092.13 171.855 1092.42 171.338C1092.71 170.821 1092.86 170.23 1092.86 169.565V158.545ZM1099.4 176V173.81L1108.11 161.588H1099.38V158.545H1112.75V160.736L1104.03 172.957H1112.76V176H1099.4ZM1119.29 158.545V176H1115.6V158.545H1119.29ZM1125.33 176H1121.38L1127.4 158.545H1132.16L1138.17 176H1134.22L1129.85 162.534H1129.71L1125.33 176ZM1125.08 169.139H1134.42V172.02H1125.08V169.139ZM1140.27 176V158.545H1143.97V165.747H1151.46V158.545H1155.14V176H1151.46V168.79H1143.97V176H1140.27Z" fill="white"/>
<path d="M1021.52 749V731.545H1028.51C1029.79 731.545 1030.86 731.736 1031.72 732.116C1032.58 732.497 1033.22 733.026 1033.65 733.702C1034.09 734.372 1034.3 735.145 1034.3 736.02C1034.3 736.702 1034.16 737.301 1033.89 737.818C1033.62 738.33 1033.24 738.75 1032.77 739.08C1032.3 739.403 1031.76 739.634 1031.15 739.77V739.94C1031.81 739.969 1032.43 740.156 1033.01 740.503C1033.6 740.849 1034.07 741.335 1034.44 741.96C1034.8 742.58 1034.98 743.318 1034.98 744.176C1034.98 745.102 1034.75 745.929 1034.29 746.656C1033.84 747.378 1033.16 747.949 1032.27 748.369C1031.38 748.79 1030.28 749 1028.97 749H1021.52ZM1025.21 745.983H1028.22C1029.24 745.983 1029.99 745.787 1030.47 745.395C1030.94 744.997 1031.17 744.469 1031.17 743.81C1031.17 743.327 1031.06 742.901 1030.82 742.531C1030.59 742.162 1030.26 741.872 1029.83 741.662C1029.4 741.452 1028.89 741.347 1028.3 741.347H1025.21V745.983ZM1025.21 738.849H1027.94C1028.45 738.849 1028.9 738.761 1029.29 738.585C1029.69 738.403 1030 738.148 1030.23 737.818C1030.46 737.489 1030.58 737.094 1030.58 736.634C1030.58 736.003 1030.35 735.494 1029.9 735.108C1029.46 734.722 1028.83 734.528 1028.01 734.528H1025.21V738.849ZM1048.17 731.545H1051.86V742.881C1051.86 744.153 1051.55 745.267 1050.94 746.222C1050.34 747.176 1049.5 747.92 1048.41 748.455C1047.33 748.983 1046.06 749.247 1044.62 749.247C1043.17 749.247 1041.9 748.983 1040.82 748.455C1039.73 747.92 1038.89 747.176 1038.29 746.222C1037.69 745.267 1037.38 744.153 1037.38 742.881V731.545H1041.07V742.565C1041.07 743.23 1041.22 743.821 1041.51 744.338C1041.8 744.855 1042.22 745.261 1042.75 745.557C1043.29 745.852 1043.91 746 1044.62 746C1045.34 746 1045.96 745.852 1046.49 745.557C1047.02 745.261 1047.43 744.855 1047.72 744.338C1048.02 743.821 1048.17 743.23 1048.17 742.565V731.545ZM1054.89 749V731.545H1058.58V739.241H1058.81L1065.09 731.545H1069.52L1063.04 739.361L1069.59 749H1065.18L1060.4 741.824L1058.58 744.04V749H1054.89ZM1075.13 731.545V749H1071.44V731.545H1075.13ZM1077.5 734.588V731.545H1091.84V734.588H1086.49V749H1082.84V734.588H1077.5ZM1115.15 737.656H1111.42C1111.35 737.173 1111.21 736.744 1111 736.369C1110.79 735.989 1110.52 735.665 1110.19 735.398C1109.86 735.131 1109.48 734.926 1109.05 734.784C1108.62 734.642 1108.16 734.571 1107.66 734.571C1106.76 734.571 1105.97 734.795 1105.3 735.244C1104.63 735.687 1104.11 736.335 1103.74 737.188C1103.37 738.034 1103.19 739.062 1103.19 740.273C1103.19 741.517 1103.37 742.562 1103.74 743.409C1104.12 744.256 1104.64 744.895 1105.31 745.327C1105.98 745.759 1106.75 745.974 1107.63 745.974C1108.13 745.974 1108.59 745.909 1109.01 745.778C1109.43 745.648 1109.81 745.457 1110.14 745.207C1110.47 744.952 1110.74 744.642 1110.96 744.278C1111.18 743.915 1111.33 743.5 1111.42 743.034L1115.15 743.051C1115.06 743.852 1114.81 744.625 1114.43 745.369C1114.05 746.108 1113.53 746.77 1112.88 747.355C1112.24 747.935 1111.48 748.395 1110.58 748.736C1109.7 749.071 1108.69 749.239 1107.58 749.239C1106.02 749.239 1104.63 748.886 1103.4 748.182C1102.18 747.477 1101.21 746.457 1100.5 745.122C1099.8 743.787 1099.44 742.17 1099.44 740.273C1099.44 738.369 1099.8 736.75 1100.52 735.415C1101.23 734.08 1102.21 733.062 1103.43 732.364C1104.66 731.659 1106.04 731.307 1107.58 731.307C1108.59 731.307 1109.52 731.449 1110.39 731.733C1111.26 732.017 1112.03 732.432 1112.7 732.977C1113.37 733.517 1113.91 734.179 1114.33 734.963C1114.76 735.747 1115.03 736.645 1115.15 737.656ZM1121.49 731.545V749H1117.8V731.545H1121.49ZM1139.12 731.545V749H1135.94L1128.34 738.014H1128.22V749H1124.52V731.545H1127.76L1135.3 742.523H1135.45V731.545H1139.12ZM1141.51 734.588V731.545H1155.84V734.588H1150.5V749H1146.85V734.588H1141.51ZM1159.08 749H1155.13L1161.15 731.545H1165.91L1171.92 749H1167.97L1163.6 735.534H1163.46L1159.08 749ZM1158.83 742.139H1168.17V745.02H1158.83V742.139Z" fill="white"/>
<path d="M935.517 904V886.545H939.207V893.747H946.699V886.545H950.381V904H946.699V896.79H939.207V904H935.517ZM953.423 904V886.545H960.412C961.696 886.545 962.767 886.736 963.625 887.116C964.483 887.497 965.128 888.026 965.56 888.702C965.991 889.372 966.207 890.145 966.207 891.02C966.207 891.702 966.071 892.301 965.798 892.818C965.526 893.33 965.151 893.75 964.673 894.08C964.202 894.403 963.662 894.634 963.054 894.77V894.94C963.719 894.969 964.341 895.156 964.92 895.503C965.506 895.849 965.98 896.335 966.344 896.96C966.707 897.58 966.889 898.318 966.889 899.176C966.889 900.102 966.659 900.929 966.199 901.656C965.744 902.378 965.071 902.949 964.179 903.369C963.287 903.79 962.188 904 960.881 904H953.423ZM957.114 900.983H960.122C961.151 900.983 961.901 900.787 962.372 900.395C962.844 899.997 963.08 899.469 963.08 898.81C963.08 898.327 962.963 897.901 962.73 897.531C962.497 897.162 962.165 896.872 961.733 896.662C961.307 896.452 960.798 896.347 960.207 896.347H957.114V900.983ZM957.114 893.849H959.849C960.355 893.849 960.804 893.761 961.196 893.585C961.594 893.403 961.906 893.148 962.134 892.818C962.366 892.489 962.483 892.094 962.483 891.634C962.483 891.003 962.259 890.494 961.81 890.108C961.366 889.722 960.736 889.528 959.918 889.528H957.114V893.849ZM969.29 904V886.545H976.177C977.501 886.545 978.629 886.798 979.56 887.304C980.492 887.804 981.202 888.5 981.691 889.392C982.185 890.278 982.433 891.301 982.433 892.46C982.433 893.619 982.183 894.642 981.683 895.528C981.183 896.415 980.458 897.105 979.509 897.599C978.566 898.094 977.424 898.341 976.083 898.341H971.694V895.384H975.487C976.197 895.384 976.782 895.261 977.242 895.017C977.708 894.767 978.055 894.423 978.282 893.986C978.515 893.543 978.631 893.034 978.631 892.46C978.631 891.881 978.515 891.375 978.282 890.943C978.055 890.506 977.708 890.168 977.242 889.929C976.776 889.685 976.185 889.562 975.469 889.562H972.981V904H969.29Z" fill="white"/>
<path d="M105.705 992H99.517V974.545H105.756C107.511 974.545 109.023 974.895 110.29 975.594C111.557 976.287 112.531 977.284 113.213 978.585C113.901 979.886 114.244 981.443 114.244 983.256C114.244 985.074 113.901 986.636 113.213 987.943C112.531 989.25 111.551 990.253 110.273 990.952C109 991.651 107.477 992 105.705 992ZM103.207 988.838H105.551C106.642 988.838 107.56 988.645 108.304 988.259C109.054 987.866 109.616 987.261 109.991 986.443C110.372 985.619 110.562 984.557 110.562 983.256C110.562 981.966 110.372 980.912 109.991 980.094C109.616 979.276 109.057 978.673 108.312 978.287C107.568 977.901 106.651 977.707 105.56 977.707H103.207V988.838ZM116.978 992V974.545H128.739V977.588H120.668V981.747H128.134V984.79H120.668V988.957H128.773V992H116.978ZM141.142 979.565C141.074 978.878 140.781 978.344 140.264 977.963C139.747 977.582 139.045 977.392 138.159 977.392C137.557 977.392 137.048 977.477 136.634 977.648C136.219 977.812 135.901 978.043 135.679 978.338C135.463 978.634 135.355 978.969 135.355 979.344C135.344 979.656 135.409 979.929 135.551 980.162C135.699 980.395 135.901 980.597 136.156 980.767C136.412 980.932 136.707 981.077 137.043 981.202C137.378 981.321 137.736 981.423 138.116 981.509L139.685 981.884C140.446 982.054 141.145 982.281 141.781 982.565C142.418 982.849 142.969 983.199 143.435 983.614C143.901 984.028 144.261 984.517 144.517 985.08C144.778 985.642 144.912 986.287 144.918 987.014C144.912 988.082 144.639 989.009 144.099 989.793C143.565 990.571 142.793 991.176 141.781 991.608C140.776 992.034 139.563 992.247 138.142 992.247C136.733 992.247 135.506 992.031 134.46 991.599C133.42 991.168 132.608 990.528 132.023 989.682C131.443 988.83 131.139 987.776 131.111 986.52H134.682C134.722 987.105 134.889 987.594 135.185 987.986C135.486 988.372 135.886 988.665 136.386 988.864C136.892 989.057 137.463 989.153 138.099 989.153C138.724 989.153 139.267 989.062 139.727 988.881C140.193 988.699 140.554 988.446 140.81 988.122C141.065 987.798 141.193 987.426 141.193 987.006C141.193 986.614 141.077 986.284 140.844 986.017C140.616 985.75 140.281 985.523 139.838 985.335C139.401 985.148 138.864 984.977 138.227 984.824L136.327 984.347C134.855 983.989 133.693 983.429 132.841 982.668C131.989 981.906 131.565 980.881 131.571 979.591C131.565 978.534 131.847 977.611 132.415 976.821C132.989 976.031 133.776 975.415 134.776 974.972C135.776 974.528 136.912 974.307 138.185 974.307C139.48 974.307 140.611 974.528 141.577 974.972C142.548 975.415 143.304 976.031 143.844 976.821C144.384 977.611 144.662 978.526 144.679 979.565H141.142ZM150.01 992H146.055L152.081 974.545H156.837L162.854 992H158.899L154.527 978.534H154.391L150.01 992ZM149.763 985.139H159.104V988.02H149.763V985.139ZM174.025 979.565C173.957 978.878 173.664 978.344 173.147 977.963C172.63 977.582 171.928 977.392 171.042 977.392C170.44 977.392 169.931 977.477 169.516 977.648C169.102 977.812 168.783 978.043 168.562 978.338C168.346 978.634 168.238 978.969 168.238 979.344C168.227 979.656 168.292 979.929 168.434 980.162C168.582 980.395 168.783 980.597 169.039 980.767C169.295 980.932 169.59 981.077 169.925 981.202C170.261 981.321 170.619 981.423 170.999 981.509L172.567 981.884C173.329 982.054 174.028 982.281 174.664 982.565C175.3 982.849 175.852 983.199 176.317 983.614C176.783 984.028 177.144 984.517 177.4 985.08C177.661 985.642 177.795 986.287 177.8 987.014C177.795 988.082 177.522 989.009 176.982 989.793C176.448 990.571 175.675 991.176 174.664 991.608C173.658 992.034 172.445 992.247 171.025 992.247C169.616 992.247 168.388 992.031 167.343 991.599C166.303 991.168 165.491 990.528 164.906 989.682C164.326 988.83 164.022 987.776 163.994 986.52H167.565C167.604 987.105 167.772 987.594 168.067 987.986C168.369 988.372 168.769 988.665 169.269 988.864C169.775 989.057 170.346 989.153 170.982 989.153C171.607 989.153 172.15 989.062 172.61 988.881C173.076 988.699 173.437 988.446 173.692 988.122C173.948 987.798 174.076 987.426 174.076 987.006C174.076 986.614 173.96 986.284 173.727 986.017C173.499 985.75 173.164 985.523 172.721 985.335C172.283 985.148 171.746 984.977 171.11 984.824L169.21 984.347C167.738 983.989 166.576 983.429 165.724 982.668C164.871 981.906 164.448 980.881 164.454 979.591C164.448 978.534 164.729 977.611 165.298 976.821C165.871 976.031 166.658 975.415 167.658 974.972C168.658 974.528 169.795 974.307 171.067 974.307C172.363 974.307 173.494 974.528 174.46 974.972C175.431 975.415 176.187 976.031 176.727 976.821C177.266 977.611 177.545 978.526 177.562 979.565H174.025ZM183.973 974.545V992H180.283V974.545H183.973ZM196.478 979.565C196.41 978.878 196.117 978.344 195.6 977.963C195.083 977.582 194.381 977.392 193.495 977.392C192.893 977.392 192.384 977.477 191.969 977.648C191.555 977.812 191.237 978.043 191.015 978.338C190.799 978.634 190.691 978.969 190.691 979.344C190.68 979.656 190.745 979.929 190.887 980.162C191.035 980.395 191.237 980.597 191.492 980.767C191.748 980.932 192.043 981.077 192.379 981.202C192.714 981.321 193.072 981.423 193.452 981.509L195.021 981.884C195.782 982.054 196.481 982.281 197.117 982.565C197.754 982.849 198.305 983.199 198.771 983.614C199.237 984.028 199.597 984.517 199.853 985.08C200.114 985.642 200.248 986.287 200.254 987.014C200.248 988.082 199.975 989.009 199.435 989.793C198.901 990.571 198.129 991.176 197.117 991.608C196.112 992.034 194.898 992.247 193.478 992.247C192.069 992.247 190.842 992.031 189.796 991.599C188.756 991.168 187.944 990.528 187.359 989.682C186.779 988.83 186.475 987.776 186.447 986.52H190.018C190.058 987.105 190.225 987.594 190.521 987.986C190.822 988.372 191.222 988.665 191.722 988.864C192.228 989.057 192.799 989.153 193.435 989.153C194.06 989.153 194.603 989.062 195.063 988.881C195.529 988.699 195.89 988.446 196.146 988.122C196.401 987.798 196.529 987.426 196.529 987.006C196.529 986.614 196.413 986.284 196.18 986.017C195.952 985.75 195.617 985.523 195.174 985.335C194.737 985.148 194.2 984.977 193.563 984.824L191.663 984.347C190.191 983.989 189.029 983.429 188.177 982.668C187.325 981.906 186.901 980.881 186.907 979.591C186.901 978.534 187.183 977.611 187.751 976.821C188.325 976.031 189.112 975.415 190.112 974.972C191.112 974.528 192.248 974.307 193.521 974.307C194.816 974.307 195.947 974.528 196.913 974.972C197.884 975.415 198.64 976.031 199.18 976.821C199.719 977.611 199.998 978.526 200.015 979.565H196.478ZM206.665 992L201.67 974.545H205.702L208.591 986.673H208.736L211.923 974.545H215.375L218.554 986.699H218.707L221.597 974.545H225.628L220.634 992H217.037L213.713 980.588H213.577L210.261 992H206.665ZM228.854 992H224.899L230.925 974.545H235.68L241.697 992H237.743L233.371 978.534H233.234L228.854 992ZM228.607 985.139H237.947V988.02H228.607V985.139ZM99.517 1021V1003.55H111.074V1006.59H103.207V1010.75H110.307V1013.79H103.207V1021H99.517ZM114.385 1021H110.43L116.456 1003.55H121.212L127.229 1021H123.274L118.902 1007.53H118.766L114.385 1021ZM114.138 1014.14H123.479V1017.02H114.138V1014.14ZM136.318 1003.55H139.966V1015.72C139.966 1016.84 139.713 1017.82 139.207 1018.65C138.707 1019.48 138.011 1020.12 137.119 1020.57C136.227 1021.01 135.19 1021.24 134.009 1021.24C132.957 1021.24 132.003 1021.05 131.145 1020.68C130.293 1020.31 129.616 1019.74 129.116 1018.98C128.616 1018.21 128.369 1017.25 128.375 1016.09H132.048C132.06 1016.55 132.153 1016.95 132.33 1017.28C132.511 1017.6 132.759 1017.85 133.071 1018.03C133.389 1018.2 133.764 1018.28 134.196 1018.28C134.651 1018.28 135.034 1018.18 135.347 1017.99C135.665 1017.79 135.906 1017.5 136.071 1017.12C136.236 1016.74 136.318 1016.27 136.318 1015.72V1003.55ZM146.026 1021H142.071L148.097 1003.55H152.852L158.869 1021H154.915L150.543 1007.53H150.406L146.026 1021ZM145.778 1014.14H155.119V1017.02H145.778V1014.14ZM160.97 1021V1003.55H167.857C169.175 1003.55 170.3 1003.78 171.232 1004.25C172.169 1004.72 172.882 1005.38 173.371 1006.24C173.865 1007.09 174.112 1008.09 174.112 1009.25C174.112 1010.41 173.862 1011.4 173.362 1012.24C172.862 1013.07 172.138 1013.7 171.189 1014.15C170.246 1014.59 169.104 1014.81 167.763 1014.81H163.152V1011.85H167.166C167.871 1011.85 168.456 1011.75 168.922 1011.56C169.388 1011.36 169.734 1011.07 169.962 1010.69C170.195 1010.3 170.311 1009.82 170.311 1009.25C170.311 1008.67 170.195 1008.18 169.962 1007.78C169.734 1007.38 169.385 1007.08 168.913 1006.88C168.447 1006.67 167.859 1006.56 167.149 1006.56H164.661V1021H160.97ZM170.396 1013.06L174.734 1021H170.661L166.416 1013.06H170.396Z" fill="white"/>
<defs>
<filter id="filter0_d_139_339" x="477" y="375" width="58" height="58" filterUnits="userSpaceOnUse" color-interpolation-filters="sRGB">
<feFlood flood-opacity="0" result="BackgroundImageFix"/>
<feColorMatrix in="SourceAlpha" type="matrix" values="0 0 0 0 0 0 0 0 0 0 0 0 0 0 0 0 0 0 127 0" result="hardAlpha"/>
<feOffset dy="4"/>
<feGaussianBlur stdDeviation="2"/>
<feComposite in2="hardAlpha" operator="out"/>
<feColorMatrix type="matrix" values="0 0 0 0 0 0 0 0 0 0 0 0 0 0 0 0 0 0 0.25 0"/>
<feBlend mode="normal" in2="BackgroundImageFix" result="effect1_dropShadow_139_339"/>
<feBlend mode="normal" in="SourceGraphic" in2="effect1_dropShadow_139_339" result="shape"/>
</filter>
<filter id="filter1_d_139_339" x="900" y="2" width="58" height="58" filterUnits="userSpaceOnUse" color-interpolation-filters="sRGB">
<feFlood flood-opacity="0" result="BackgroundImageFix"/>
<feColorMatrix in="SourceAlpha" type="matrix" values="0 0 0 0 0 0 0 0 0 0 0 0 0 0 0 0 0 0 127 0" result="hardAlpha"/>
<feOffset dy="4"/>
<feGaussianBlur stdDeviation="2"/>
<feComposite in2="hardAlpha" operator="out"/>
<feColorMatrix type="matrix" values="0 0 0 0 0 0 0 0 0 0 0 0 0 0 0 0 0 0 0.25 0"/>
<feBlend mode="normal" in2="BackgroundImageFix" result="effect1_dropShadow_139_339"/>
<feBlend mode="normal" in="SourceGraphic" in2="effect1_dropShadow_139_339" result="shape"/>
</filter>
<filter id="filter2_d_139_339" x="888" y="114" width="58" height="58" filterUnits="userSpaceOnUse" color-interpolation-filters="sRGB">
<feFlood flood-opacity="0" result="BackgroundImageFix"/>
<feColorMatrix in="SourceAlpha" type="matrix" values="0 0 0 0 0 0 0 0 0 0 0 0 0 0 0 0 0 0 127 0" result="hardAlpha"/>
<feOffset dy="4"/>
<feGaussianBlur stdDeviation="2"/>
<feComposite in2="hardAlpha" operator="out"/>
<feColorMatrix type="matrix" values="0 0 0 0 0 0 0 0 0 0 0 0 0 0 0 0 0 0 0.25 0"/>
<feBlend mode="normal" in2="BackgroundImageFix" result="effect1_dropShadow_139_339"/>
<feBlend mode="normal" in="SourceGraphic" in2="effect1_dropShadow_139_339" result="shape"/>
</filter>
<filter id="filter3_d_139_339" x="879" y="871" width="58" height="58" filterUnits="userSpaceOnUse" color-interpolation-filters="sRGB">
<feFlood flood-opacity="0" result="BackgroundImageFix"/>
<feColorMatrix in="SourceAlpha" type="matrix" values="0 0 0 0 0 0 0 0 0 0 0 0 0 0 0 0 0 0 127 0" result="hardAlpha"/>
<feOffset dy="4"/>
<feGaussianBlur stdDeviation="2"/>
<feComposite in2="hardAlpha" operator="out"/>
<feColorMatrix type="matrix" values="0 0 0 0 0 0 0 0 0 0 0 0 0 0 0 0 0 0 0.25 0"/>
<feBlend mode="normal" in2="BackgroundImageFix" result="effect1_dropShadow_139_339"/>
<feBlend mode="normal" in="SourceGraphic" in2="effect1_dropShadow_139_339" result="shape"/>
</filter>
<filter id="filter4_d_139_339" x="141" y="393" width="58" height="58" filterUnits="userSpaceOnUse" color-interpolation-filters="sRGB">
<feFlood flood-opacity="0" result="BackgroundImageFix"/>
<feColorMatrix in="SourceAlpha" type="matrix" values="0 0 0 0 0 0 0 0 0 0 0 0 0 0 0 0 0 0 127 0" result="hardAlpha"/>
<feOffset dy="4"/>
<feGaussianBlur stdDeviation="2"/>
<feComposite in2="hardAlpha" operator="out"/>
<feColorMatrix type="matrix" values="0 0 0 0 0 0 0 0 0 0 0 0 0 0 0 0 0 0 0.25 0"/>
<feBlend mode="normal" in2="BackgroundImageFix" result="effect1_dropShadow_139_339"/>
<feBlend mode="normal" in="SourceGraphic" in2="effect1_dropShadow_139_339" result="shape"/>
</filter>
</defs>
</svg>
